<svg width="24" height="30" viewBox="0 0 24 30" fill="none" xmlns="http://www.w3.org/2000/svg"><path d="M20.022 15.646c-.043-3.709 3.037-5.542 3.208-5.627-1.754-2.558-4.448-2.9-5.39-2.9-2.267-.255-4.49 1.365-5.646 1.365-1.198 0-2.951-1.321-4.876-1.279-2.481.043-4.791 1.45-6.074 3.667-2.61 4.519-.685 11.17 1.84 14.836 1.24 1.79 2.737 3.794 4.662 3.709 1.882-.085 2.566-1.194 4.833-1.194 2.267 0 2.909 1.194 4.876 1.151 2.01-.042 3.294-1.79 4.492-3.623C23.4 23.703 24 21.657 24 21.572c-.086 0-3.978-1.45-3.978-5.927ZM16.3 4.732C17.327 3.453 18.011 1.748 17.797 0c-1.454.085-3.293 1.023-4.363 2.26-.94 1.065-1.753 2.856-1.54 4.519 1.669.128 3.337-.81 4.406-2.047Z" fill="#fff"/></svg>