<svg width="77" height="58" viewBox="0 0 77 58" fill="none" xmlns="http://www.w3.org/2000/svg"><path d="M74.961 45.821 57.734 28.384a20.45 20.45 0 0 0 .919-13.746 20.217 20.217 0 0 0-7.994-11.153A19.812 19.812 0 0 0 37.46.1a19.897 19.897 0 0 0-12.28 5.952 20.334 20.334 0 0 0-5.664 12.529 20.406 20.406 0 0 0 3.579 13.293 19.994 19.994 0 0 0 11.161 7.89 19.776 19.776 0 0 0 13.567-1.172l17.139 17.346A7.029 7.029 0 0 0 69.951 58a7.03 7.03 0 0 0 4.977-2.096A7.198 7.198 0 0 0 77 50.868a7.199 7.199 0 0 0-2.039-5.05v.003ZM28.484 31.289a15.738 15.738 0 0 1-4.242-8.028 15.853 15.853 0 0 1 .88-9.06 15.641 15.641 0 0 1 5.708-7.038 15.367 15.367 0 0 1 8.61-2.642c3.064 0 6.06.92 8.609 2.642a15.641 15.641 0 0 1 5.707 7.038 15.851 15.851 0 0 1 .88 9.06 15.737 15.737 0 0 1-4.241 8.027 15.428 15.428 0 0 1-10.956 4.581 15.428 15.428 0 0 1-10.955-4.58Zm43.288 21.42a2.539 2.539 0 0 1-1.806.757 2.539 2.539 0 0 1-1.805-.756L51.787 36.137a20.288 20.288 0 0 0 3.576-3.694l16.403 16.601a2.611 2.611 0 0 1 0 3.653l.006.013Z" fill="url(#a)"/><path d="M2.257 27.312h9.628c.598 0 1.172-.24 1.596-.668a2.297 2.297 0 0 0 .66-1.615c0-.606-.237-1.186-.66-1.615a2.243 2.243 0 0 0-1.596-.668H2.257c-.599 0-1.173.24-1.596.668A2.297 2.297 0 0 0 0 25.03a2.3 2.3 0 0 0 .661 1.615c.423.428.997.668 1.596.668Z" fill="url(#b)"/><path d="M2.257 37.055h13.239a2.24 2.24 0 0 0 1.595-.669 2.294 2.294 0 0 0 .661-1.615c0-.605-.237-1.186-.66-1.614a2.243 2.243 0 0 0-1.596-.669H2.256a2.24 2.24 0 0 0-1.595.669A2.297 2.297 0 0 0 0 34.77c0 .606.238 1.187.661 1.615.423.428.997.669 1.596.669Z" fill="url(#c)"/><path d="M2.257 46.797h22.855a2.24 2.24 0 0 0 1.596-.669 2.297 2.297 0 0 0 .66-1.614c0-.606-.237-1.187-.66-1.615a2.243 2.243 0 0 0-1.596-.669H2.257a2.24 2.24 0 0 0-1.596.67A2.297 2.297 0 0 0 0 44.513c0 .605.238 1.186.661 1.614.423.429.997.67 1.596.67Z" fill="url(#d)"/><path d="M51.576 51.973H2.256a2.246 2.246 0 0 0-1.553.693 2.3 2.3 0 0 0-.638 1.591 2.3 2.3 0 0 0 .638 1.592c.41.427.967.675 1.554.693h49.32a2.247 2.247 0 0 0 1.553-.693 2.3 2.3 0 0 0 .637-1.592 2.3 2.3 0 0 0-.637-1.591 2.246 2.246 0 0 0-1.554-.693Z" fill="url(#e)"/><defs><linearGradient id="a" x1="17.938" y1="10.106" x2="72.385" y2="56.45" gradientUnits="userSpaceOnUse"><stop stop-color="#E63A28"/><stop offset="1" stop-color="#E4766A"/></linearGradient><linearGradient id="b" x1="17.938" y1="10.106" x2="72.385" y2="56.45" gradientUnits="userSpaceOnUse"><stop stop-color="#E63A28"/><stop offset="1" stop-color="#E4766A"/></linearGradient><linearGradient id="c" x1="17.938" y1="10.106" x2="72.385" y2="56.45" gradientUnits="userSpaceOnUse"><stop stop-color="#E63A28"/><stop offset="1" stop-color="#E4766A"/></linearGradient><linearGradient id="d" x1="17.938" y1="10.106" x2="72.385" y2="56.45" gradientUnits="userSpaceOnUse"><stop stop-color="#E63A28"/><stop offset="1" stop-color="#E4766A"/></linearGradient><linearGradient id="e" x1="17.938" y1="10.106" x2="72.385" y2="56.45" gradientUnits="userSpaceOnUse"><stop stop-color="#E63A28"/><stop offset="1" stop-color="#E4766A"/></linearGradient></defs></svg>