<svg width="50" height="51" viewBox="0 0 50 51" fill="none" xmlns="http://www.w3.org/2000/svg"><path d="M44.948 38.26h-2.539a.746.746 0 0 0 0 1.494h2.539a.756.756 0 0 0 .723-.453.744.744 0 0 0-.426-.993.756.756 0 0 0-.297-.047Zm0-1.985h-2.539a.746.746 0 0 0 0 1.494h2.539a.756.756 0 0 0 .723-.453.744.744 0 0 0-.426-.993.756.756 0 0 0-.297-.048Zm0-1.987h-2.539a.754.754 0 0 0-.72.747.746.746 0 0 0 .72.747h2.539a.754.754 0 0 0 .783-.747.744.744 0 0 0-.486-.7.756.756 0 0 0-.297-.047Zm0-3.154h-2.539a.746.746 0 0 0 0 1.494h2.539a.754.754 0 0 0 .783-.747.744.744 0 0 0-.486-.7.756.756 0 0 0-.297-.047Zm0-1.986h-2.539a.746.746 0 0 0 0 1.494h2.539a.756.756 0 0 0 .723-.453.744.744 0 0 0-.426-.993.756.756 0 0 0-.297-.048Zm0-1.986h-2.539a.754.754 0 0 0-.72.747.746.746 0 0 0 .72.747h2.539a.756.756 0 0 0 .723-.454.744.744 0 0 0-.426-.993.756.756 0 0 0-.297-.047Zm0-3.155h-2.539c-.2 0-.39.079-.532.22a.745.745 0 0 0 .532 1.276h2.539c.2 0 .39-.08.532-.22a.746.746 0 0 0-.532-1.276Zm0-1.985h-2.539a.754.754 0 0 0-.72.747.746.746 0 0 0 .72.747h2.539a.756.756 0 0 0 .723-.454.744.744 0 0 0-.426-.993.756.756 0 0 0-.297-.047Zm0-1.987h-2.539a.746.746 0 0 0 0 1.494h2.539a.756.756 0 0 0 .723-.454.744.744 0 0 0-.426-.993.758.758 0 0 0-.297-.047Z" fill="#000"/><path d="M49.586 12.348a4.173 4.173 0 0 0-1.145-2.62 4.22 4.22 0 0 0-2.57-1.278 71.847 71.847 0 0 0-8.455-.49h-.17c-.013-.226-.025-.452-.04-.68a7.107 7.107 0 0 0-1.982-4.512A7.187 7.187 0 0 0 30.772.61a116.186 116.186 0 0 0-23.773 0 7.186 7.186 0 0 0-4.451 2.158A7.107 7.107 0 0 0 .566 7.281a293.433 293.433 0 0 0 0 36.438c.1 1.69.803 3.29 1.982 4.513a7.186 7.186 0 0 0 4.451 2.158A116 116 0 0 0 18.89 51c3.972 0 7.94-.203 11.891-.61a7.154 7.154 0 0 0 4.085-1.814.75.75 0 0 0 .245-.517.743.743 0 0 0-.43-.712.754.754 0 0 0-.825.123 5.65 5.65 0 0 1-3.242 1.429c-7.8.803-15.662.803-23.462 0a5.682 5.682 0 0 1-3.522-1.707 5.62 5.62 0 0 1-1.566-3.57 291.483 291.483 0 0 1 0-36.258 5.622 5.622 0 0 1 1.567-3.57 5.685 5.685 0 0 1 3.52-1.708c7.8-.802 15.663-.802 23.463 0a5.688 5.688 0 0 1 3.522 1.708 5.622 5.622 0 0 1 1.567 3.57 291.994 291.994 0 0 1 0 36.258 5.588 5.588 0 0 1-.4 1.763.743.743 0 0 0 .425.946.756.756 0 0 0 .968-.386c.29-.711.46-1.464.508-2.23l.04-.68h.267c2.792 0 5.58-.164 8.353-.488a4.22 4.22 0 0 0 2.575-1.279 4.174 4.174 0 0 0 1.147-2.624c.552-8.757.552-17.54 0-26.296ZM48.09 38.556a2.687 2.687 0 0 1-.738 1.684 2.717 2.717 0 0 1-1.653.823 70.03 70.03 0 0 1-8.275.48h-.088c.585-10.69.585-21.404 0-32.093h.087a70.845 70.845 0 0 1 8.276.48 2.717 2.717 0 0 1 1.653.822c.437.458.698 1.054.738 1.685.546 8.697.546 17.42 0 26.119Z" fill="#000"/><path d="M33.453 8.8A4.638 4.638 0 0 0 32 5.88a4.69 4.69 0 0 0-3.025-1.254 255.485 255.485 0 0 0-20.175 0A4.69 4.69 0 0 0 5.776 5.88a4.638 4.638 0 0 0-1.454 2.919 29.265 29.265 0 0 0 0 6.306c.089.809.388 1.58.867 2.24a4.719 4.719 0 0 0 1.868 1.522.755.755 0 0 0 1.022-.36.744.744 0 0 0-.402-1.001 3.214 3.214 0 0 1-1.271-1.037 3.188 3.188 0 0 1-.59-1.525 27.83 27.83 0 0 1 0-5.984c.077-.76.427-1.465.987-1.987A3.187 3.187 0 0 1 8.86 6.12c6.654-.266 13.4-.266 20.052 0a3.18 3.18 0 0 1 2.057.853c.56.522.91 1.227.987 1.987a27.72 27.72 0 0 1 0 5.985 3.151 3.151 0 0 1-.987 1.987c-.56.522-1.29.825-2.057.853-6.146.248-12.39.265-18.554.056a.755.755 0 0 0-.71.436.744.744 0 0 0 .373.99c.09.04.186.063.285.067a249.38 249.38 0 0 0 18.668-.056 4.69 4.69 0 0 0 3.023-1.255 4.638 4.638 0 0 0 1.454-2.918c.227-2.096.227-4.21 0-6.305h.002Zm-4.367 12.985a143.558 143.558 0 0 0-20.393 0 4.486 4.486 0 0 0-2.822 1.254 4.436 4.436 0 0 0-1.33 2.773 88.27 88.27 0 0 0 0 16.488 4.436 4.436 0 0 0 1.33 2.772 4.485 4.485 0 0 0 2.822 1.253 143.17 143.17 0 0 0 20.393 0 4.485 4.485 0 0 0 2.822-1.253 4.435 4.435 0 0 0 1.33-2.773 88.49 88.49 0 0 0 0-16.487 4.436 4.436 0 0 0-1.33-2.773 4.486 4.486 0 0 0-2.822-1.254Zm2.655 4.165a81.92 81.92 0 0 1 .245 3.32c-2.434-.06-4.89-.102-7.324-.132-.03-2.043-.083-4.09-.155-6.116 1.494.058 2.984.14 4.47.247a2.98 2.98 0 0 1 1.878.83c.506.49.82 1.144.886 1.843v.008ZM5.722 30.77c2.45-.061 4.923-.104 7.375-.133a323.96 323.96 0 0 0 0 6.83 486.002 486.002 0 0 1-7.375-.132 86.89 86.89 0 0 1 0-6.57v.005Zm8.88 6.715c-.026-2.279-.026-4.58 0-6.86 2.85-.022 5.725-.022 8.576 0 .025 2.28.025 4.58 0 6.86-2.85.024-5.727.024-8.577 0ZM24.68 30.64c2.453.026 4.924.069 7.375.133a86.925 86.925 0 0 1 0 6.57c-2.45.061-4.922.104-7.375.133.025-2.27.025-4.56 0-6.83v-.006Zm-1.682-7.667c.072 2.036.125 4.098.157 6.153a537.701 537.701 0 0 0-8.538 0c.032-2.055.084-4.117.156-6.153 1.37-.04 2.742-.06 4.112-.061a134.31 134.31 0 0 1 4.113.06ZM6.03 25.945c.065-.7.38-1.353.886-1.843a2.98 2.98 0 0 1 1.877-.83c1.486-.108 2.976-.19 4.47-.247a307.9 307.9 0 0 0-.153 6.116 448.28 448.28 0 0 0-7.326.132c.06-1.11.141-2.216.246-3.32v-.008Zm0 16.21a82.694 82.694 0 0 1-.246-3.32c2.434.06 4.89.102 7.325.132.031 2.043.083 4.09.154 6.116-1.494-.06-2.984-.142-4.47-.247a2.981 2.981 0 0 1-1.877-.831 2.948 2.948 0 0 1-.886-1.844v-.006Zm8.739 2.973a311.248 311.248 0 0 1-.156-6.154c1.418.011 2.844.018 4.275.019 1.431 0 2.857-.006 4.275-.02a311.476 311.476 0 0 1-.157 6.155c-2.74.08-5.48.08-8.225 0h-.012Zm16.968-2.973a2.95 2.95 0 0 1-.886 1.843 2.98 2.98 0 0 1-1.877.832 138.36 138.36 0 0 1-4.47.247c.072-2.026.124-4.075.154-6.116 2.436-.027 4.89-.07 7.325-.133a82.114 82.114 0 0 1-.246 3.32v.007Z" fill="#000"/><path d="M27.592 14.7c-.904 0-1.202-.035-1.912-.412a.753.753 0 0 0-1.096.873.748.748 0 0 0 .384.443c.735.399 1.25.531 1.87.571v.3a.744.744 0 0 0 .457.718.756.756 0 0 0 .999-.423.744.744 0 0 0 .048-.296v-.357c1.377-.28 2.216-1.298 2.358-2.3.133-.912-.308-2.145-1.956-2.624-.817-.235-1.721-.521-2.238-.854a.414.414 0 0 1-.175-.443c.044-.255.258-.57.73-.687a2.393 2.393 0 0 1 1.824.226.753.753 0 0 0 1.181-.489.741.741 0 0 0-.379-.77 3.648 3.648 0 0 0-1.344-.493v-.25a.746.746 0 0 0-.752-.716.754.754 0 0 0-.751.717v.298c-.046.011-.092.02-.134.032-.972.24-1.7.982-1.853 1.891a1.894 1.894 0 0 0 .842 1.945c.548.352 1.31.65 2.633 1.033.627.182.95.54.889.982-.075.524-.668 1.085-1.625 1.09V14.7Z" fill="#000"/></svg>