<svg width="39" height="62" viewBox="0 0 39 62" fill="none" xmlns="http://www.w3.org/2000/svg"><path opacity=".2" fill-rule="evenodd" clip-rule="evenodd" d="m35.779 45.503-3.557.633 2.042 11.438c.113.635-.29 1.238-.9 1.347l-17.217 3.062c-.61.109-1.197-.319-1.31-.954L12.796 49.59l-3.557.632c-2.137.38-4.197-1.12-4.594-3.344L.067 21.22c-.398-2.225 1.018-4.343 3.153-4.724l3.557-.632-2.04-11.438c-.115-.635.289-1.239.898-1.347L22.852.017c.61-.109 1.198.318 1.31.953l2.042 11.439 3.557-.633c2.136-.38 4.197 1.12 4.594 3.345l1.105 6.199.99-.177c.61-.107 1.197.318 1.31.955.114.635-.29 1.238-.9 1.347l-.99.176.57 3.18.988-.177c.61-.109 1.198.318 1.31.953.114.636-.29 1.24-.9 1.348l-.988.176 2.083 11.678c.398 2.225-1.018 4.344-3.154 4.724ZM16.842 59.486l15.007-2.67-1.836-10.287-15.007 2.668 1.836 10.29Zm5.316-56.971L7.151 5.183l1.836 10.288 15.007-2.67-1.836-10.286Zm14.566 38.658-4.579-25.659c-.17-.955-1.056-1.6-1.973-1.437l-26.54 4.72c-.918.163-1.527 1.075-1.356 2.03l4.579 25.658c.17.955 1.056 1.601 1.973 1.438l26.54-4.72c.917-.164 1.527-1.075 1.356-2.03Zm-15.436-4.28c-.172.214-.41.349-.66.394-.253.044-.52 0-.757-.142-.85-.51-5.145-3.11-6.24-4.309-.498-.544-1.18-1.429-1.355-2.82-.291-2.314 1.17-4.426 3.328-4.81 1.189-.212 2.256.252 3.009.745.544-.721 1.389-1.528 2.538-1.731 2.158-.384 4.26 1.094 4.788 3.365.316 1.364-.017 2.43-.295 3.113-.617 1.515-3.736 5.426-4.356 6.195Zm2.466-8.792c-.242-1.044-1.225-1.752-2.192-1.58-.787.14-1.463 1.268-1.637 1.651a1.11 1.11 0 0 1-.833.646 1.114 1.114 0 0 1-.994-.351c-.294-.314-1.253-1.108-2.083-.96-.967.172-1.644 1.176-1.51 2.238.07.561.286.995.745 1.497.58.634 3.045 2.244 4.903 3.386 1.342-1.708 3.092-4.063 3.42-4.866.255-.63.308-1.112.181-1.661Zm9.03 12.712-22.357 3.976c-.609.108-1.196-.319-1.309-.954l-3.801-21.3c-.113-.637.29-1.24.9-1.348l22.355-3.977c.61-.107 1.197.32 1.31.955l.973 5.45c.113.635-.29 1.237-.9 1.346-.61.11-1.197-.318-1.31-.954l-.768-4.299-20.145 3.583 3.39 19 20.146-3.583-.767-4.298c-.114-.636.289-1.239.9-1.348.61-.109 1.197.319 1.31.954l.972 5.45c.113.635-.29 1.238-.9 1.347Zm-1.898-10.63a1.133 1.133 0 0 1-1.175-.578 1.208 1.208 0 0 1 .1-1.322c.304-.384.83-.518 1.279-.33.432.18.72.631.714 1.112-.006.55-.397 1.025-.918 1.118Z" fill="#5F8AD4"/></svg>