<svg width="51" height="52" viewBox="0 0 51 52" fill="none" xmlns="http://www.w3.org/2000/svg"><path opacity=".2" fill-rule="evenodd" clip-rule="evenodd" d="M50.205 23.4 40.03 25.329l3.934 20.778a.977.977 0 0 1-.778 1.143l-4.799.91a.976.976 0 0 1-1.142-.78.978.978 0 0 1 .778-1.143l3.84-.727-3.753-19.818-3.885.738a8.277 8.277 0 0 1-5.67 6.563l.442 2.334 1.824-.346a3.425 3.425 0 0 1 3.996 2.73l.584 3.077a3.429 3.429 0 0 1-2.722 4.005l-5.568 1.055a3.425 3.425 0 0 1-3.996-2.73l-.584-3.078a3.43 3.43 0 0 1 2.723-4.004l1.823-.346-.441-2.334a8.269 8.269 0 0 1-7.675-4.032l-3.887.737 3.752 19.816 3.84-.728a.979.979 0 0 1 .364 1.924l-4.8.91a.977.977 0 0 1-1.141-.78l-3.934-20.778-10.174 1.929a.978.978 0 0 1-1.142-.78l-.729-3.848a.978.978 0 0 1 .778-1.143l5.423-1.029-.826-4.36-5.327 1.009a.978.978 0 0 1-.364-1.923l12.574-2.385a.98.98 0 0 1 .364 1.924l-5.327 1.01.826 4.36 8.717-1.652a8.365 8.365 0 0 1 1.982-3.996 8.18 8.18 0 0 1 4.595-2.585 8.171 8.171 0 0 1 5.22.724 8.36 8.36 0 0 1 3.307 2.992l8.835-1.674-.825-4.361-5.327 1.01a.977.977 0 0 1-1.142-.78.978.978 0 0 1 .778-1.145l12.573-2.383a.977.977 0 0 1 1.142.78.978.978 0 0 1-.778 1.144l-5.326 1.01.826 4.36 5.303-1.005a.977.977 0 0 1 1.142.78l.729 3.848a.978.978 0 0 1-.778 1.144ZM25.619 37.96c-.794.15-1.317.92-1.166 1.715l.582 3.078a1.469 1.469 0 0 0 1.714 1.171l5.566-1.056a1.47 1.47 0 0 0 1.167-1.715l-.583-3.08a1.468 1.468 0 0 0-1.713-1.169L25.62 37.96Zm22.898-18.226-15.783 2.993a.977.977 0 0 1-1.052-.516c-1.267-2.48-4.06-3.85-6.792-3.331-2.732.517-4.83 2.815-5.104 5.585a.976.976 0 0 1-.79.866L3.215 28.325l.363 1.924 15.726-2.982a.975.975 0 0 1 1.064.542 6.31 6.31 0 0 0 11.996-2.275.98.98 0 0 1 .793-.895l15.725-2.982-.364-1.923ZM29.16 41.374a.978.978 0 0 1-.364-1.924.977.977 0 0 1 1.142.78.978.978 0 0 1-.778 1.144ZM23.269 10.32c2.9-.55 5.819-.126 8.439 1.225a.979.979 0 0 1-.893 1.74 11.042 11.042 0 0 0-7.182-1.04 11.044 11.044 0 0 0-6.302 3.598.976.976 0 0 1-1.379.088.98.98 0 0 1-.089-1.381 12.982 12.982 0 0 1 7.406-4.23Zm-9.616 2.278a.976.976 0 0 1-1.379.088.98.98 0 0 1-.089-1.381 17.824 17.824 0 0 1 10.171-5.808 17.813 17.813 0 0 1 11.589 1.681.98.98 0 0 1-.893 1.74A15.894 15.894 0 0 0 22.721 7.42a15.9 15.9 0 0 0-9.068 5.178ZM36.036 4.41a.977.977 0 0 1-.628-.092 20.979 20.979 0 0 0-13.65-1.98 20.997 20.997 0 0 0-11.98 6.84.975.975 0 0 1-1.379.088.981.981 0 0 1-.09-1.382A22.937 22.937 0 0 1 21.395.414a22.91 22.91 0 0 1 14.906 2.162.981.981 0 0 1-.266 1.833Z" fill="#65D45F"/></svg>