<svg width="80" height="36" viewBox="0 0 80 36" fill="none" xmlns="http://www.w3.org/2000/svg"><path fill-rule="evenodd" clip-rule="evenodd" d="M15 6h50c8.284 0 15 6.715 15 15 0 8.284-6.716 15-15 15H15C6.716 36 0 29.284 0 21 0 12.715 6.716 6 15 6Zm25.001-6 5 6H35l5.001-6Z" fill="#333"/><path d="M19.948 22.9c.638.506 1.661 1.1 2.838 1.111.77 0 1.463-.231 1.98-.605.517-.374.869-.924.869-1.54s-.341-1.122-.847-1.452c-.506-.341-1.188-.561-1.958-.704h-.022c-.693-.132-1.265-.319-1.65-.583-.385-.264-.561-.55-.572-.935 0-.396.22-.77.605-1.056.385-.275.946-.462 1.573-.462.847 0 1.507.418 2.112.814.11.077.264.044.33-.066a.245.245 0 0 0-.066-.341c-.605-.396-1.364-.891-2.376-.891-.726 0-1.375.209-1.859.561-.484.352-.803.858-.803 1.441 0 .572.319 1.034.792 1.342.473.319 1.1.517 1.815.649h.022c.748.143 1.364.352 1.782.627.418.286.627.616.627 1.056 0 .429-.231.836-.66 1.144-.418.308-1.023.506-1.694.506-1.001.011-1.958-.528-2.53-.99a.235.235 0 0 0-.341.033.255.255 0 0 0 .033.341Zm7.381.836c0 .143.11.253.242.264h3.982a.26.26 0 0 0 .264-.264c0-.154-.11-.275-.264-.275h-3.685v-3.036h3.223a.27.27 0 0 0 0-.539h-3.223v-3.047h3.685c.154 0 .264-.121.264-.275a.26.26 0 0 0-.264-.264h-3.96a.268.268 0 0 0-.264.264v7.172Zm11.14.088c.044.11.154.176.253.176.033 0 .056-.011.1-.011a.276.276 0 0 0 .142-.352l-2.672-7.139c-.034-.099-.144-.165-.264-.165-.11 0-.22.066-.264.165l-2.674 7.139c-.055.132.022.297.154.352.034 0 .078.011.1.011.11 0 .209-.066.252-.176l.683-1.815h3.508l.682 1.815Zm-2.43-6.49 1.55 4.136h-3.112l1.562-4.136Zm8.409 6.193c.12.242.352.352.495.352h.022c.066 0 .12-.011.132-.011a.3.3 0 0 0 .176-.352c-.044-.121-.176-.187-.297-.176-.011-.011-.066-.055-.11-.187-.055-.165-.1-.44-.1-.891 0-.869-.527-1.43-1.033-1.716-.044-.022-.077-.033-.11-.055a2.2 2.2 0 0 0 1.265-1.991 2.19 2.19 0 0 0-2.19-2.2H40.5a.272.272 0 0 0-.242.264v7.172a.27.27 0 0 0 .539 0v-3.047h1.87c.01 0 .022.011.055.022.143.022.55.143.89.385.342.253.628.605.628 1.166 0 .649.077 1.012.209 1.265ZM44.36 18.5c0 .902-.726 1.639-1.617 1.661h-1.947v-3.322h1.903a1.66 1.66 0 0 1 1.66 1.661Zm2.31 1.617c0 2.145 1.793 3.883 4.004 3.883.946 0 1.815-.319 2.486-.836.12-.088.143-.286.033-.385-.077-.132-.253-.154-.385-.066-.572.484-1.32.748-2.134.748-1.925 0-3.465-1.507-3.465-3.344 0-1.881 1.54-3.388 3.465-3.388.814 0 1.562.286 2.156.748.11.088.286.077.374-.055.099-.099.077-.286-.044-.385a4.083 4.083 0 0 0-2.486-.847c-2.211.011-4.004 1.738-4.004 3.927Zm13.051 3.619a.27.27 0 0 0 .539 0v-7.172a.27.27 0 0 0-.539 0v3.322h-3.96v-3.322a.27.27 0 0 0-.539 0v7.172a.27.27 0 0 0 .539 0v-3.322h3.96v3.322Z" fill="#fff"/></svg>