<svg width="69" height="65" viewBox="0 0 69 65" fill="none" xmlns="http://www.w3.org/2000/svg"><path opacity=".2" fill-rule="evenodd" clip-rule="evenodd" d="M65.791 43.149 21.548 64.443a5.65 5.65 0 0 1-7.542-2.664l-1.47-3.08a1.011 1.011 0 0 1 .472-1.347l1.814-.874L.502 26.492a5.146 5.146 0 0 1 2.4-6.845L42.678.505a5.107 5.107 0 0 1 6.817 2.408l14.321 29.985 1.815-.873a1.005 1.005 0 0 1 1.343.474l1.47 3.08c1.347 2.826.159 6.213-2.654 7.57ZM47.681 3.785a3.096 3.096 0 0 0-4.133-1.46L3.77 21.47a3.12 3.12 0 0 0-1.454 4.15l14.32 29.986L62.004 33.77 47.682 3.785ZM35.81 48.618a3.017 3.017 0 0 0 3.436.587l3.63-1.748a3.037 3.037 0 0 0 1.696-3.056l-8.762 4.217ZM66.63 36.45l-1.035-2.169-19.145 9.215a5.064 5.064 0 0 1-2.706 5.782l-3.629 1.746a5.025 5.025 0 0 1-6.185-1.503l-19.146 9.214 1.037 2.169a3.638 3.638 0 0 0 4.856 1.716l44.245-21.294a3.666 3.666 0 0 0 1.708-4.876ZM4.57 23.326 44.49 4.112a1.005 1.005 0 0 1 1.342.474l13.05 27.326c.24.502.029 1.106-.473 1.347L18.49 52.472a1.004 1.004 0 0 1-1.343-.474L4.096 24.674a1.012 1.012 0 0 1 .473-1.348Zm13.957 26.889 38.107-18.341L44.453 6.37 6.347 24.71l12.18 25.504Z" fill="#E63A28"/></svg>