<svg width="54" height="54" viewBox="0 0 54 54" fill="none" xmlns="http://www.w3.org/2000/svg"><path fill-rule="evenodd" clip-rule="evenodd" d="M52.923 19.526c-.724 3.182-1.44 6.365-2.166 9.547-1.468-1.862-2.8-3.828-4.208-5.734.62-2.486 1.18-4.988 1.747-7.49.427-1.924.658-3.985.013-5.89-1.149-3.158-4.826-5.097-8.077-4.306-2.817.603-5.111 2.44-7.56 3.844-6.381 3.702-13.201 6.543-19.862 9.675.562-.966 1.51-1.603 2.292-2.372 4.848-4.45 10.219-8.272 15.493-12.19C33.77 2.274 37.45.246 41.488.216c3.924-.194 7.794 1.76 10.188 4.837 1.67 2.191 2.412 4.998 2.316 7.737.043 2.292-.577 4.518-1.07 6.736ZM5.84 44.17c1.128 3.278 5.001 5.236 8.32 4.327 2.648-.593 4.798-2.338 7.108-3.658 6.455-3.813 13.41-6.65 20.171-9.845-3.575 3.911-7.867 7.08-12.064 10.287-3.922 2.792-7.563 6.156-12.137 7.863-3.328 1.166-7.195 1.25-10.362-.433C3.51 51.12.922 47.876.372 44.16c-.433-2.354-.203-4.773.332-7.09.897-3.991 1.815-7.974 2.703-11.965a183.039 183.039 0 0 1 4.209 5.782c-.63 2.469-1.161 4.96-1.736 7.445-.44 1.904-.719 3.95-.04 5.837Z" fill="#2B5AE1"/><path fill-rule="evenodd" clip-rule="evenodd" d="M52.66 46.861c-1.547 3.297-4.593 5.937-8.23 6.615-4.134.941-8.253-.488-12.272-1.328-2.389-.546-4.784-1.07-7.17-1.63 1.798-1.492 3.79-2.734 5.628-4.176 2.767.598 5.514 1.294 8.288 1.871 2.195.423 4.668.46 6.583-.847 2.223-1.564 3.513-4.461 2.94-7.145-.323-1.782-1.188-3.397-2.15-4.912-4.584-7.152-7.868-15.013-11.372-22.716 3.873 3.644 7.102 7.893 10.308 12.114 2.556 3.625 5.622 6.97 7.408 11.07 1.506 3.478 1.8 7.64.04 11.084ZM14.903 5.554c-2.18-.404-4.647-.469-6.537.865-1.878 1.323-3.117 3.6-3.009 5.916-.018 2.527 1.343 4.776 2.667 6.836 4.178 6.576 7.14 13.795 10.447 20.817.187.432.305.892.418 1.353-3.907-4.184-7.58-8.58-10.93-13.218-2.599-3.591-5.637-6.999-7.143-11.23C-.37 13.559-.33 9.7 1.382 6.554 2.73 3.9 5.042 1.7 7.891.731c2.866-1.024 6.012-.856 8.944-.205 4.008.91 8.02 1.809 12.026 2.73-1.82 1.486-3.781 2.79-5.666 4.19-2.76-.646-5.52-1.306-8.293-1.892Z" fill="#E63A28"/></svg>