<svg width="65" height="56" viewBox="0 0 65 56" fill="none" xmlns="http://www.w3.org/2000/svg"><path d="M32.5 21.846c2.184 0 4.32-.64 6.136-1.84a10.95 10.95 0 0 0 4.068-4.903 10.811 10.811 0 0 0 .629-6.31 10.886 10.886 0 0 0-3.023-5.594A11.083 11.083 0 0 0 34.655.21a11.16 11.16 0 0 0-6.382.622 11.02 11.02 0 0 0-4.956 4.024 10.837 10.837 0 0 0-1.862 6.068 10.874 10.874 0 0 0 3.239 7.72 11.12 11.12 0 0 0 7.806 3.203Zm0-18.08c1.431 0 2.83.42 4.02 1.207a7.174 7.174 0 0 1 2.665 3.211 7.083 7.083 0 0 1 .412 4.135 7.132 7.132 0 0 1-1.98 3.664 7.262 7.262 0 0 1-3.705 1.96 7.311 7.311 0 0 1-4.181-.408 7.22 7.22 0 0 1-3.248-2.636 7.101 7.101 0 0 1-1.22-3.976 7.125 7.125 0 0 1 2.123-5.058A7.286 7.286 0 0 1 32.5 3.767Z" fill="url(#a)"/><path d="M54.844 21.846c1.38 0 2.73-.405 3.879-1.163a6.923 6.923 0 0 0 2.572-3.1 6.836 6.836 0 0 0 .397-3.99 6.882 6.882 0 0 0-1.91-3.535 7.007 7.007 0 0 0-3.576-1.89 7.055 7.055 0 0 0-4.034.393 6.966 6.966 0 0 0-3.134 2.543 6.851 6.851 0 0 0-1.177 3.837 6.874 6.874 0 0 0 2.047 4.88 7.028 7.028 0 0 0 4.936 2.025Zm0-10.044a3.2 3.2 0 0 1 1.763.529c.522.345.929.835 1.169 1.409a3.107 3.107 0 0 1-.688 3.42 3.206 3.206 0 0 1-3.459.68 3.167 3.167 0 0 1-1.424-1.155 3.115 3.115 0 0 1-.535-1.744c0-.832.335-1.63.93-2.219a3.196 3.196 0 0 1 2.244-.92Z" fill="url(#b)"/><path d="M56.379 26.115h-2.944a8.704 8.704 0 0 0-4.645 1.34 8.567 8.567 0 0 0-3.187 3.602 15.326 15.326 0 0 0-5.137-3.653 15.49 15.49 0 0 0-6.192-1.289h-3.555c-2.132 0-4.24.438-6.191 1.29-1.951.85-3.7 2.094-5.138 3.652a8.568 8.568 0 0 0-3.184-3.6 8.703 8.703 0 0 0-4.641-1.342H8.62a8.654 8.654 0 0 0-6.082 2.474 8.463 8.463 0 0 0-2.539 6v13.71a3.648 3.648 0 0 0 1.094 2.608 3.76 3.76 0 0 0 2.64 1.075h11.644a4.386 4.386 0 0 0 1.427 2.86A4.48 4.48 0 0 0 19.808 56h25.39a4.48 4.48 0 0 0 3.004-1.158 4.387 4.387 0 0 0 1.427-2.86h11.51a3.887 3.887 0 0 0 2.727-1.117A3.8 3.8 0 0 0 65 48.17V34.59a8.463 8.463 0 0 0-2.539-6 8.654 8.654 0 0 0-6.082-2.474Zm-52.57 8.474a4.712 4.712 0 0 1 1.421-3.338 4.818 4.818 0 0 1 3.391-1.37h2.944a4.819 4.819 0 0 1 3.39 1.37 4.712 4.712 0 0 1 1.422 3.338v1.289c-1.281 3.298-1.016 5.273-1.016 12.334H3.81V34.59Zm42.021 17.01a.628.628 0 0 1-.186.445.642.642 0 0 1-.449.186h-25.39a.641.641 0 0 1-.451-.185.628.628 0 0 1-.188-.446V41.31a11.377 11.377 0 0 1 3.389-8.078 11.634 11.634 0 0 1 8.168-3.35h3.554a11.636 11.636 0 0 1 8.168 3.35 11.379 11.379 0 0 1 3.389 8.078L45.83 51.6Zm15.361-3.428c0 .063.711.041-11.552.041 0-7.113.262-9.04-1.016-12.334v-1.289a4.712 4.712 0 0 1 1.422-3.338 4.819 4.819 0 0 1 3.39-1.37h2.944a4.818 4.818 0 0 1 3.39 1.37 4.712 4.712 0 0 1 1.422 3.338V48.17Z" fill="url(#c)"/><path d="M10.156 21.846a7.039 7.039 0 0 0 3.88-1.163 6.923 6.923 0 0 0 2.571-3.1 6.835 6.835 0 0 0 .398-3.99 6.882 6.882 0 0 0-1.911-3.535 7.007 7.007 0 0 0-3.575-1.89 7.055 7.055 0 0 0-4.035.393 6.966 6.966 0 0 0-3.133 2.543 6.851 6.851 0 0 0-1.177 3.837 6.874 6.874 0 0 0 2.047 4.88 7.028 7.028 0 0 0 4.935 2.025Zm0-10.044c.628 0 1.242.184 1.763.529.522.345.93.835 1.17 1.409a3.107 3.107 0 0 1-.689 3.42 3.206 3.206 0 0 1-3.459.68 3.167 3.167 0 0 1-1.424-1.155 3.115 3.115 0 0 1-.535-1.744c.001-.832.336-1.63.931-2.219a3.195 3.195 0 0 1 2.243-.92Z" fill="url(#d)"/><defs><linearGradient id="a" x1="15.142" y1="9.758" x2="66.153" y2="47.718" gradientUnits="userSpaceOnUse"><stop stop-color="#1C468A"/><stop offset="1" stop-color="#5E89D0"/></linearGradient><linearGradient id="b" x1="15.142" y1="9.758" x2="66.153" y2="47.718" gradientUnits="userSpaceOnUse"><stop stop-color="#1C468A"/><stop offset="1" stop-color="#5E89D0"/></linearGradient><linearGradient id="c" x1="15.142" y1="9.758" x2="66.153" y2="47.718" gradientUnits="userSpaceOnUse"><stop stop-color="#1C468A"/><stop offset="1" stop-color="#5E89D0"/></linearGradient><linearGradient id="d" x1="15.142" y1="9.758" x2="66.153" y2="47.718" gradientUnits="userSpaceOnUse"><stop stop-color="#1C468A"/><stop offset="1" stop-color="#5E89D0"/></linearGradient></defs></svg>