<svg width="52" height="50" viewBox="0 0 52 50" fill="none" xmlns="http://www.w3.org/2000/svg"><path opacity=".2" fill-rule="evenodd" clip-rule="evenodd" d="m51.774 25.208-6.955 21.564c-.789 2.446-3.412 3.792-5.848 3.002L3.213 38.158c-2.436-.792-3.775-3.425-2.987-5.87l6.955-21.565c.789-2.445 3.412-3.79 5.848-3l2.202.715.338-1.05a3.298 3.298 0 0 1 4.151-2.13 3.314 3.314 0 0 1 2.12 4.167l-.339 1.049 4.979 1.617 4.707-4.18a.912.912 0 0 1 .888-.186l12.077 3.923c.308.1.54.356.611.673l1.375 6.155 2.65.86c2.435.792 3.775 3.425 2.986 5.871Zm-32.618-18.2a1.467 1.467 0 0 0-1.845.947l-.338 1.05 2.786.904.34-1.048a1.474 1.474 0 0 0-.943-1.853Zm23.936 6.229-11.084-3.6-3.506 3.113 15.613 5.07-1.023-4.583Zm5.13 7.85L12.464 9.472a2.815 2.815 0 0 0-3.54 1.819L1.968 32.855a2.828 2.828 0 0 0 1.808 3.555l35.758 11.614a2.814 2.814 0 0 0 3.542-1.818l6.956-21.563a2.829 2.829 0 0 0-1.81-3.556ZM27.847 41.522c-6.051-1.965-9.38-8.508-7.42-14.584a11.534 11.534 0 0 1 2.208-3.966.914.914 0 0 1 1.29-.1c.385.33.43.91.1 1.296a9.689 9.689 0 0 0-1.856 3.336c-1.649 5.112 1.151 10.615 6.241 12.269 5.091 1.653 10.574-1.16 12.223-6.272 1.648-5.112-1.152-10.616-6.242-12.269a9.626 9.626 0 0 0-3.787-.443.919.919 0 0 1-.15-1.831c1.521-.128 3.036.05 4.5.525 6.051 1.965 9.38 8.507 7.42 14.584-1.959 6.076-8.476 9.42-14.527 7.455Zm5.867-18.191c3.937 1.279 6.104 5.537 4.828 9.49-1.275 3.956-5.516 6.132-9.455 4.852-3.938-1.279-6.104-5.536-4.828-9.49 1.275-3.955 5.517-6.131 9.455-4.852Zm-4.062 12.594c2.978.967 6.184-.68 7.148-3.67.964-2.988-.673-6.208-3.65-7.175-2.979-.967-6.186.68-7.149 3.668-.964 2.99.673 6.21 3.65 7.177Zm2.863-8.878a3.637 3.637 0 0 1 2.325 4.573.914.914 0 0 1-1.152.591.92.92 0 0 1-.589-1.158 1.796 1.796 0 0 0-1.148-2.256.918.918 0 0 1-.589-1.157.915.915 0 0 1 1.153-.593Zm-5.53-5.219a.922.922 0 0 1-.7.056.924.924 0 0 1-.588-1.157.919.919 0 0 1 1.153-.592.922.922 0 0 1 .588 1.158.922.922 0 0 1-.454.535Zm-9.231-2.715-4.53-1.47a.92.92 0 0 1 .565-1.75l4.53 1.471a.92.92 0 0 1-.565 1.75ZM47.929 6.506l-4.231 2.17a.915.915 0 0 1-1.232-.4.922.922 0 0 1 .4-1.236l4.23-2.171a.914.914 0 0 1 1.232.4.921.921 0 0 1-.399 1.237Zm-7.92.29a.915.915 0 1 1-1.742-.567l1.505-4.668A.915.915 0 0 1 40.925.97a.92.92 0 0 1 .59 1.158l-1.507 4.667Zm-4.6-.812a.912.912 0 0 1-1.232-.4l-2.16-4.246a.92.92 0 0 1 .4-1.237.914.914 0 0 1 1.23.4l2.162 4.248a.92.92 0 0 1-.4 1.235Z" fill="#D2B92F"/></svg>