<svg width="25" height="28" viewBox="0 0 25 28" fill="none" xmlns="http://www.w3.org/2000/svg"><path d="M.573.457c-.316.315-.527.84-.527 1.47v23.205c0 .63.21 1.155.527 1.47l.105.105 13.057-13.02v-.21L.573.457Z" fill="url(#a)"/><path d="m18.052 18.097-4.317-4.305v-.315l4.317-4.305.105.105 5.16 2.94c1.474.84 1.474 2.205 0 3.045l-5.265 2.835Z" fill="url(#b)"/><path d="m18.157 17.991-4.422-4.41L.573 26.706c.526.525 1.263.525 2.21.105l15.374-8.82Z" fill="url(#c)"/><path d="M18.157 9.172 2.784.457C1.836-.068 1.099.037.573.562l13.162 13.02 4.422-4.41Z" fill="url(#d)"/><path opacity=".2" d="m18.052 17.887-15.268 8.61c-.843.525-1.58.42-2.106 0l-.105.105.105.105c.526.42 1.263.525 2.106 0l15.268-8.82Z" fill="#000"/><path opacity=".12" d="M.573 26.496c-.316-.315-.421-.84-.421-1.47v.105c0 .63.21 1.155.526 1.47v-.105H.573Zm22.744-11.55-5.265 2.94.105.105 5.16-2.94c.737-.42 1.053-.945 1.053-1.47 0 .525-.421.945-1.053 1.365Z" fill="#000"/><path opacity=".25" d="m2.784.562 20.533 11.655c.632.42 1.053.84 1.053 1.365 0-.525-.316-1.05-1.053-1.47L2.784.457C1.31-.383.152.352.152 2.032v.105C.152.457 1.31-.278 2.784.562Z" fill="#fff"/><defs><linearGradient id="a" x1="12.576" y1="1.727" x2="-5.045" y2="19.398" gradientUnits="userSpaceOnUse"><stop stop-color="#00A0FF"/><stop offset=".007" stop-color="#00A1FF"/><stop offset=".26" stop-color="#00BEFF"/><stop offset=".512" stop-color="#00D2FF"/><stop offset=".76" stop-color="#00DFFF"/><stop offset="1" stop-color="#00E3FF"/></linearGradient><linearGradient id="b" x1="25.249" y1="13.583" x2="-.23" y2="13.583" gradientUnits="userSpaceOnUse"><stop stop-color="#FFE000"/><stop offset=".409" stop-color="#FFBD00"/><stop offset=".775" stop-color="orange"/><stop offset="1" stop-color="#FF9C00"/></linearGradient><linearGradient id="c" x1="15.764" y1="15.992" x2="-8.132" y2="39.956" gradientUnits="userSpaceOnUse"><stop stop-color="#FF3A44"/><stop offset="1" stop-color="#C31162"/></linearGradient><linearGradient id="d" x1="-2.695" y1="-7.233" x2="7.976" y2="3.468" gradientUnits="userSpaceOnUse"><stop stop-color="#32A071"/><stop offset=".069" stop-color="#2DA771"/><stop offset=".476" stop-color="#15CF74"/><stop offset=".801" stop-color="#06E775"/><stop offset="1" stop-color="#00F076"/></linearGradient></defs></svg>