<svg width="54" height="57" viewBox="0 0 54 57" fill="none" xmlns="http://www.w3.org/2000/svg"><path d="M16.506 29.502H8.2c-.435 0-.852.176-1.16.49-.307.312-.48.737-.48 1.18 0 .443.173.867.48 1.18.308.314.725.49 1.16.49h8.307c.435 0 .852-.176 1.16-.49.307-.313.48-.737.48-1.18 0-.443-.173-.868-.48-1.18a1.625 1.625 0 0 0-1.16-.49Z" fill="url(#a)"/><path d="M16.506 22.377H8.2c-.435 0-.852.176-1.16.49-.307.312-.48.737-.48 1.18 0 .443.173.867.48 1.18.308.314.725.49 1.16.49h8.307c.435 0 .852-.176 1.16-.49.307-.313.48-.737.48-1.18 0-.443-.173-.868-.48-1.18a1.625 1.625 0 0 0-1.16-.49Z" fill="url(#b)"/><path d="M32.685 15.252H8.2c-.435 0-.852.176-1.16.49-.307.312-.48.737-.48 1.18 0 .443.173.867.48 1.18.308.314.725.49 1.16.49h24.486c.435 0 .852-.176 1.16-.49.307-.313.48-.737.48-1.18 0-.443-.173-.868-.48-1.18a1.625 1.625 0 0 0-1.16-.49Z" fill="url(#c)"/><path d="M32.685 9.018H8.2c-.435 0-.852.176-1.16.489a1.688 1.688 0 0 0 0 2.361c.308.313.725.49 1.16.49h24.486c.435 0 .852-.177 1.16-.49a1.688 1.688 0 0 0 0-2.361 1.625 1.625 0 0 0-1.16-.49Z" fill="url(#d)"/><path d="M50.409 26.83h-9.525V7.048a7.122 7.122 0 0 0-2.03-4.983A6.865 6.865 0 0 0 33.96 0H6.92a6.865 6.865 0 0 0-4.89 2.066A7.122 7.122 0 0 0 0 7.048v38.374a11.702 11.702 0 0 0 3.334 8.183A11.28 11.28 0 0 0 11.37 57H45.8a8.133 8.133 0 0 0 5.795-2.448A8.437 8.437 0 0 0 54 48.65V30.49c0-.97-.38-1.9-1.053-2.586a3.564 3.564 0 0 0-2.54-1.074h.002Zm-39.04 26.83a8.026 8.026 0 0 1-5.717-2.416 8.326 8.326 0 0 1-2.373-5.822V7.048c0-.984.384-1.928 1.068-2.624a3.61 3.61 0 0 1 2.576-1.087H33.96a3.61 3.61 0 0 1 2.577 1.087 3.746 3.746 0 0 1 1.067 2.624V48.65a8.414 8.414 0 0 0 1.644 5.01h-27.88Zm39.353-5.01a5.056 5.056 0 0 1-1.44 3.543 4.874 4.874 0 0 1-3.48 1.467 4.875 4.875 0 0 1-3.477-1.467 5.057 5.057 0 0 1-1.441-3.543V30.17h9.525a.307.307 0 0 1 .222.094.32.32 0 0 1 .091.227v18.16Z" fill="url(#e)"/><path d="M29.967 33.813c-.276-.1-.557-.202-.837-.308v-5.167c.987.39 1.055.89 1.925.89.325 0 .64-.1.91-.284.268-.185.478-.446.6-.751a1.7 1.7 0 0 0-.358-1.819c.032-.035-1.258-1.123-3.077-1.497v-.891c0-.443-.173-.868-.48-1.18a1.625 1.625 0 0 0-1.16-.49c-.434 0-.851.176-1.159.49a1.68 1.68 0 0 0-.48 1.18v1.005c-4.444 1.187-5.374 6.95-2.423 9.307a11.788 11.788 0 0 0 2.423 1.446v6.89c-.712-.105-1.25-.358-2.106-.928a1.615 1.615 0 0 0-1.234-.237 1.64 1.64 0 0 0-1.037.72 1.703 1.703 0 0 0-.233 1.257c.09.433.344.813.708 1.056 1.476.984 2.552 1.362 3.902 1.484v1c0 .443.172.868.48 1.181.308.313.724.49 1.16.49.434 0 .851-.177 1.159-.49.307-.313.48-.738.48-1.18v-1.15c5.734-1.484 6.86-9.856.837-12.023v-.001ZM25.85 31.96a4.678 4.678 0 0 1-.4-.288c-.698-.558-.594-2.227.4-3.044v3.332Zm3.28 10.3v-5.195c2.392 1.058 1.82 4.097 0 5.195Z" fill="url(#f)"/><defs><linearGradient id="a" x1="12.579" y1="9.932" x2="60.681" y2="39.148" gradientUnits="userSpaceOnUse"><stop stop-color="#289328"/><stop offset="1" stop-color="#66D05E"/></linearGradient><linearGradient id="b" x1="12.579" y1="9.932" x2="60.681" y2="39.148" gradientUnits="userSpaceOnUse"><stop stop-color="#289328"/><stop offset="1" stop-color="#66D05E"/></linearGradient><linearGradient id="c" x1="12.579" y1="9.932" x2="60.681" y2="39.148" gradientUnits="userSpaceOnUse"><stop stop-color="#289328"/><stop offset="1" stop-color="#66D05E"/></linearGradient><linearGradient id="d" x1="12.579" y1="9.932" x2="60.681" y2="39.148" gradientUnits="userSpaceOnUse"><stop stop-color="#289328"/><stop offset="1" stop-color="#66D05E"/></linearGradient><linearGradient id="e" x1="12.579" y1="9.932" x2="60.681" y2="39.148" gradientUnits="userSpaceOnUse"><stop stop-color="#289328"/><stop offset="1" stop-color="#66D05E"/></linearGradient><linearGradient id="f" x1="12.579" y1="9.932" x2="60.681" y2="39.148" gradientUnits="userSpaceOnUse"><stop stop-color="#289328"/><stop offset="1" stop-color="#66D05E"/></linearGradient></defs></svg>