<svg xmlns="http://www.w3.org/2000/svg" xmlns:xlink="http://www.w3.org/1999/xlink" style="width: 0; height: 0; visibility: hidden; position: absolute;" aria-hidden="true"><symbol  viewBox='0 0 12 16' id='ancor'>
    <path d="M6.063 0a5.71 5.71 0 0 0-2.344.5c-.74.323-1.38.76-1.922 1.313A6.362 6.362 0 0 0 .484 3.75 5.867 5.867 0 0 0 0 6.094c0 .458.063.937.188 1.437.124.5.27.964.437 1.39.167.428.406.902.719 1.423.312.52.588.963.828 1.328.25.354.583.791 1 1.312.417.51.74.901.969 1.172.229.271.552.646.968 1.125.125.146.22.25.282.313.02.031.057.068.109.11.052.051.146.114.281.187a.837.837 0 0 0 .39.109h.048c.291 0 .552-.135.781-.406 3.333-3.834 5-7 5-9.5 0-1.74-.531-3.183-1.594-4.328C9.302.589 7.854 0 6.062 0Zm.187 14.922a.178.178 0 0 1-.063.062l-.062-.062-.266-.297a234.69 234.69 0 0 0-.921-1.063 69.37 69.37 0 0 1-.922-1.124c-.396-.49-.709-.902-.938-1.235a58.61 58.61 0 0 1-.797-1.234 10.48 10.48 0 0 1-.703-1.313 10.601 10.601 0 0 1-.406-1.265A5.356 5.356 0 0 1 1 6.094c0-.907.23-1.75.688-2.532A5.134 5.134 0 0 1 3.53 1.688 4.916 4.916 0 0 1 6.062 1c.823 0 1.558.146 2.204.438.645.28 1.161.666 1.546 1.156a5.16 5.16 0 0 1 .891 1.625A5.89 5.89 0 0 1 11 6.094c0 2.25-1.583 5.192-4.75 8.828ZM6.016 3.016c-.323 0-.641.052-.954.156a3.111 3.111 0 0 0-1.906 1.906c-.094.302-.14.615-.14.938 0 .833.291 1.541.875 2.125a2.927 2.927 0 0 0 2.125.875c.833 0 1.541-.292 2.125-.875a2.893 2.893 0 0 0 .875-2.125c0-.407-.079-.792-.235-1.157a2.793 2.793 0 0 0-.64-.953 2.966 2.966 0 0 0-.97-.64 2.749 2.749 0 0 0-1.155-.25Zm0 5a1.94 1.94 0 0 1-1.422-.594A1.94 1.94 0 0 1 4 6c0-.552.193-1.02.578-1.406A1.94 1.94 0 0 1 6 4c.552 0 1.02.198 1.406.594C7.802 4.979 8 5.448 8 6c0 .688-.276 1.234-.828 1.64-.344.25-.73.376-1.156.376Z" fill="#7828E6"></path>
  </symbol><symbol  viewBox='0 0 24 30' id='apple'>
    <path d="M20.022 15.646c-.043-3.709 3.037-5.542 3.208-5.627-1.754-2.558-4.448-2.9-5.39-2.9-2.267-.255-4.49 1.365-5.646 1.365-1.198 0-2.951-1.321-4.876-1.279-2.481.043-4.791 1.45-6.074 3.667-2.61 4.519-.685 11.17 1.84 14.836 1.24 1.79 2.737 3.794 4.662 3.709 1.882-.085 2.566-1.194 4.833-1.194 2.267 0 2.909 1.194 4.876 1.151 2.01-.042 3.294-1.79 4.492-3.623C23.4 23.703 24 21.657 24 21.572c-.086 0-3.978-1.45-3.978-5.927ZM16.3 4.732C17.327 3.453 18.011 1.748 17.797 0c-1.454.085-3.293 1.023-4.363 2.26-.94 1.065-1.753 2.856-1.54 4.519 1.669.128 3.337-.81 4.406-2.047Z" fill="#fff"></path>
  </symbol><symbol  viewBox='0 0 16 11' id='arrow'>
    <path d="M15.027 3.5a.577.577 0 0 0 0-.813l-1.482-1.473a.566.566 0 0 0-.804 0L8 5.955l-4.741-4.74a.566.566 0 0 0-.804 0L.973 2.686a.577.577 0 0 0 0 .813l6.625 6.616c.223.223.58.223.804 0L15.027 3.5Z" fill="#222"></path>
  </symbol><symbol  viewBox='0 0 126 26' id='arrowBig'>
    <path fill-rule="evenodd" clip-rule="evenodd" d="M121.773 12.797c-2.169 2.886-3.823 6.139-6.118 8.913-.277.024-.839.064-1.116.079-1.725-2.741 1.219-5.483 2.343-7.881-6.055 2.19-11.659 5.699-18.03 6.923-.285-1.311-.617-3.038.705-3.909 2.073-1.016 4.479-1.239 6.434-2.527 2.517-1.742 5.509-2.541 8.073-4.196-2.074-.048-4.147.112-6.213-.056-1.733-.655-1.322-3.317.04-4.157 2.635-.343 5.31-.088 7.954-.263 3.332 0 6.743-1.631 9.901.119-.412 2.766-2.525 4.717-3.973 6.955Zm-47.56 12.086c-1.1-1.367.215-3.669 1.932-3.517 2.944-.247 5.928-.272 8.817-.967 1.702-.224 4.21-1.495 5.002.847-.593 1.998-2.968 2.007-4.598 2.558-3.65.696-7.464 1.655-11.152 1.079Zm-15.306-.551c-3.561-.008-7.226-.128-10.55-1.535.41-1.063.649-2.358 1.773-2.917 3.189.191 6.316 1.014 9.52.983 2.13.151 5.058-.712 5.945 1.982-1.86 1.607-4.401 1.407-6.688 1.487Zm-27.701-4.924c-2.897-1.023-6-1.727-8.413-3.742.514-.975 1.116-2.877 2.61-2.214 3.959 1.671 8.043 2.982 12.158 4.189 1.472.248 1.472 2.67-.031 3.014-2.177.144-4.274-.632-6.324-1.247Zm-20.444-8.793C6.932 8.616 2.484 6.418.86 2.094.157.375 2.887-.72 3.734.814c2.572 3.518 6.593 5.292 9.98 7.81 1.67 1.927-1.56 3.238-2.952 1.991Z" fill="#7828E6"></path>
  </symbol><symbol  viewBox='0 0 50 50' id='bag'>
    <path fill-rule="evenodd" clip-rule="evenodd" d="M25 0c13.807 0 25 11.193 25 25S38.807 50 25 50 0 38.807 0 25 11.193 0 25 0Z" fill="#fff"></path><path d="M28.77 25.375c.323 0 .585-.297.585-.662 0-.364-.262-.66-.585-.66-.324 0-.586.296-.586.66 0 .365.262.662.585.662Zm-7.54 0c.324 0 .586-.297.586-.662 0-.364-.262-.66-.585-.66-.324 0-.586.296-.586.66 0 .365.262.662.585.662Z" fill="#7828E6"></path><path d="M34.996 35.265 33.55 20.672c-.033-.335-.284-.588-.582-.588h-3.613v2.76c.682.272 1.172 1.007 1.172 1.87 0 1.093-.788 1.983-1.758 1.983-.969 0-1.757-.89-1.757-1.984 0-.862.49-1.597 1.172-1.87v-2.759h-6.368v2.76c.682.272 1.172 1.007 1.172 1.87 0 1.093-.788 1.983-1.758 1.983-.969 0-1.757-.89-1.757-1.984 0-.862.49-1.597 1.172-1.87v-2.759H17.03c-.298 0-.55.253-.582.588l-1.444 14.593a.719.719 0 0 0 .145.515c.111.14.27.22.437.22h18.828a.56.56 0 0 0 .437-.22.719.719 0 0 0 .145-.515Zm-13.18-16.349c0-1.981 1.429-3.593 3.184-3.593 1.756 0 3.184 1.612 3.184 3.593v1.168h1.171v-1.168C29.355 16.206 27.402 14 25 14s-4.355 2.205-4.355 4.916v1.168h1.171v-1.168Z" fill="#7828E6"></path>
  </symbol><symbol  viewBox='0 0 77 58' id='bigSearch'>
    <path d="M74.961 45.821 57.734 28.384a20.45 20.45 0 0 0 .919-13.746 20.217 20.217 0 0 0-7.994-11.153A19.812 19.812 0 0 0 37.46.1a19.897 19.897 0 0 0-12.28 5.952 20.334 20.334 0 0 0-5.664 12.529 20.406 20.406 0 0 0 3.579 13.293 19.994 19.994 0 0 0 11.161 7.89 19.776 19.776 0 0 0 13.567-1.172l17.139 17.346A7.029 7.029 0 0 0 69.951 58a7.03 7.03 0 0 0 4.977-2.096A7.198 7.198 0 0 0 77 50.868a7.199 7.199 0 0 0-2.039-5.05v.003ZM28.484 31.289a15.738 15.738 0 0 1-4.242-8.028 15.853 15.853 0 0 1 .88-9.06 15.641 15.641 0 0 1 5.708-7.038 15.367 15.367 0 0 1 8.61-2.642c3.064 0 6.06.92 8.609 2.642a15.641 15.641 0 0 1 5.707 7.038 15.851 15.851 0 0 1 .88 9.06 15.737 15.737 0 0 1-4.241 8.027 15.428 15.428 0 0 1-10.956 4.581 15.428 15.428 0 0 1-10.955-4.58Zm43.288 21.42a2.539 2.539 0 0 1-1.806.757 2.539 2.539 0 0 1-1.805-.756L51.787 36.137a20.288 20.288 0 0 0 3.576-3.694l16.403 16.601a2.611 2.611 0 0 1 0 3.653l.006.013Z" fill="url(#a)"></path><path d="M2.257 27.312h9.628c.598 0 1.172-.24 1.596-.668a2.297 2.297 0 0 0 .66-1.615c0-.606-.237-1.186-.66-1.615a2.243 2.243 0 0 0-1.596-.668H2.257c-.599 0-1.173.24-1.596.668A2.297 2.297 0 0 0 0 25.03a2.3 2.3 0 0 0 .661 1.615c.423.428.997.668 1.596.668Z" fill="url(#b)"></path><path d="M2.257 37.055h13.239a2.24 2.24 0 0 0 1.595-.669 2.294 2.294 0 0 0 .661-1.615c0-.605-.237-1.186-.66-1.614a2.243 2.243 0 0 0-1.596-.669H2.256a2.24 2.24 0 0 0-1.595.669A2.297 2.297 0 0 0 0 34.77c0 .606.238 1.187.661 1.615.423.428.997.669 1.596.669Z" fill="url(#c)"></path><path d="M2.257 46.797h22.855a2.24 2.24 0 0 0 1.596-.669 2.297 2.297 0 0 0 .66-1.614c0-.606-.237-1.187-.66-1.615a2.243 2.243 0 0 0-1.596-.669H2.257a2.24 2.24 0 0 0-1.596.67A2.297 2.297 0 0 0 0 44.513c0 .605.238 1.186.661 1.614.423.429.997.67 1.596.67Z" fill="url(#d)"></path><path d="M51.576 51.973H2.256a2.246 2.246 0 0 0-1.553.693 2.3 2.3 0 0 0-.638 1.591 2.3 2.3 0 0 0 .638 1.592c.41.427.967.675 1.554.693h49.32a2.247 2.247 0 0 0 1.553-.693 2.3 2.3 0 0 0 .637-1.592 2.3 2.3 0 0 0-.637-1.591 2.246 2.246 0 0 0-1.554-.693Z" fill="url(#e)"></path><defs><lineargradient id="a" x1="17.938" y1="10.106" x2="72.385" y2="56.45" gradientunits="userSpaceOnUse"><stop stop-color="#E63A28"></stop><stop offset="1" stop-color="#E4766A"></stop></lineargradient><lineargradient id="b" x1="17.938" y1="10.106" x2="72.385" y2="56.45" gradientunits="userSpaceOnUse"><stop stop-color="#E63A28"></stop><stop offset="1" stop-color="#E4766A"></stop></lineargradient><lineargradient id="c" x1="17.938" y1="10.106" x2="72.385" y2="56.45" gradientunits="userSpaceOnUse"><stop stop-color="#E63A28"></stop><stop offset="1" stop-color="#E4766A"></stop></lineargradient><lineargradient id="d" x1="17.938" y1="10.106" x2="72.385" y2="56.45" gradientunits="userSpaceOnUse"><stop stop-color="#E63A28"></stop><stop offset="1" stop-color="#E4766A"></stop></lineargradient><lineargradient id="e" x1="17.938" y1="10.106" x2="72.385" y2="56.45" gradientunits="userSpaceOnUse"><stop stop-color="#E63A28"></stop><stop offset="1" stop-color="#E4766A"></stop></lineargradient></defs>
  </symbol><symbol  viewBox='0 0 50 50' id='building'>
    <path fill-rule="evenodd" clip-rule="evenodd" d="M25 0c13.807 0 25 11.193 25 25S38.807 50 25 50 0 38.807 0 25 11.193 0 25 0Z" fill="#fff"></path><path d="M30.625 15.4V13h-11.25v2.4H16V37h6.75v-2.4h4.5V37H34V15.4h-3.375ZM23.875 31h-2.25v-2.4h2.25V31Zm0-4.8h-2.25v-2.4h2.25v2.4Zm0-4.8h-2.25V19h2.25v2.4Zm4.5 9.6h-2.25v-2.4h2.25V31Zm0-4.8h-2.25v-2.4h2.25v2.4Zm0-4.8h-2.25V19h2.25v2.4Z" fill="#7828E6"></path>
  </symbol><symbol  viewBox='0 0 26 19' id='burger'>
    <path d="M24.613 1H1.374m23.235 8H7.39m17.223 9H1.374" stroke="#000" stroke-width="2" stroke-linecap="square"></path>
  </symbol><symbol  viewBox='0 0 50 51' id='calculator'>
    <path d="M44.948 38.26h-2.539a.746.746 0 0 0 0 1.494h2.539a.756.756 0 0 0 .723-.453.744.744 0 0 0-.426-.993.756.756 0 0 0-.297-.047Zm0-1.985h-2.539a.746.746 0 0 0 0 1.494h2.539a.756.756 0 0 0 .723-.453.744.744 0 0 0-.426-.993.756.756 0 0 0-.297-.048Zm0-1.987h-2.539a.754.754 0 0 0-.72.747.746.746 0 0 0 .72.747h2.539a.754.754 0 0 0 .783-.747.744.744 0 0 0-.486-.7.756.756 0 0 0-.297-.047Zm0-3.154h-2.539a.746.746 0 0 0 0 1.494h2.539a.754.754 0 0 0 .783-.747.744.744 0 0 0-.486-.7.756.756 0 0 0-.297-.047Zm0-1.986h-2.539a.746.746 0 0 0 0 1.494h2.539a.756.756 0 0 0 .723-.453.744.744 0 0 0-.426-.993.756.756 0 0 0-.297-.048Zm0-1.986h-2.539a.754.754 0 0 0-.72.747.746.746 0 0 0 .72.747h2.539a.756.756 0 0 0 .723-.454.744.744 0 0 0-.426-.993.756.756 0 0 0-.297-.047Zm0-3.155h-2.539c-.2 0-.39.079-.532.22a.745.745 0 0 0 .532 1.276h2.539c.2 0 .39-.08.532-.22a.746.746 0 0 0-.532-1.276Zm0-1.985h-2.539a.754.754 0 0 0-.72.747.746.746 0 0 0 .72.747h2.539a.756.756 0 0 0 .723-.454.744.744 0 0 0-.426-.993.756.756 0 0 0-.297-.047Zm0-1.987h-2.539a.746.746 0 0 0 0 1.494h2.539a.756.756 0 0 0 .723-.454.744.744 0 0 0-.426-.993.758.758 0 0 0-.297-.047Z" fill="#000"></path><path d="M49.586 12.348a4.173 4.173 0 0 0-1.145-2.62 4.22 4.22 0 0 0-2.57-1.278 71.847 71.847 0 0 0-8.455-.49h-.17c-.013-.226-.025-.452-.04-.68a7.107 7.107 0 0 0-1.982-4.512A7.187 7.187 0 0 0 30.772.61a116.186 116.186 0 0 0-23.773 0 7.186 7.186 0 0 0-4.451 2.158A7.107 7.107 0 0 0 .566 7.281a293.433 293.433 0 0 0 0 36.438c.1 1.69.803 3.29 1.982 4.513a7.186 7.186 0 0 0 4.451 2.158A116 116 0 0 0 18.89 51c3.972 0 7.94-.203 11.891-.61a7.154 7.154 0 0 0 4.085-1.814.75.75 0 0 0 .245-.517.743.743 0 0 0-.43-.712.754.754 0 0 0-.825.123 5.65 5.65 0 0 1-3.242 1.429c-7.8.803-15.662.803-23.462 0a5.682 5.682 0 0 1-3.522-1.707 5.62 5.62 0 0 1-1.566-3.57 291.483 291.483 0 0 1 0-36.258 5.622 5.622 0 0 1 1.567-3.57 5.685 5.685 0 0 1 3.52-1.708c7.8-.802 15.663-.802 23.463 0a5.688 5.688 0 0 1 3.522 1.708 5.622 5.622 0 0 1 1.567 3.57 291.994 291.994 0 0 1 0 36.258 5.588 5.588 0 0 1-.4 1.763.743.743 0 0 0 .425.946.756.756 0 0 0 .968-.386c.29-.711.46-1.464.508-2.23l.04-.68h.267c2.792 0 5.58-.164 8.353-.488a4.22 4.22 0 0 0 2.575-1.279 4.174 4.174 0 0 0 1.147-2.624c.552-8.757.552-17.54 0-26.296ZM48.09 38.556a2.687 2.687 0 0 1-.738 1.684 2.717 2.717 0 0 1-1.653.823 70.03 70.03 0 0 1-8.275.48h-.088c.585-10.69.585-21.404 0-32.093h.087a70.845 70.845 0 0 1 8.276.48 2.717 2.717 0 0 1 1.653.822c.437.458.698 1.054.738 1.685.546 8.697.546 17.42 0 26.119Z" fill="#000"></path><path d="M33.453 8.8A4.638 4.638 0 0 0 32 5.88a4.69 4.69 0 0 0-3.025-1.254 255.485 255.485 0 0 0-20.175 0A4.69 4.69 0 0 0 5.776 5.88a4.638 4.638 0 0 0-1.454 2.919 29.265 29.265 0 0 0 0 6.306c.089.809.388 1.58.867 2.24a4.719 4.719 0 0 0 1.868 1.522.755.755 0 0 0 1.022-.36.744.744 0 0 0-.402-1.001 3.214 3.214 0 0 1-1.271-1.037 3.188 3.188 0 0 1-.59-1.525 27.83 27.83 0 0 1 0-5.984c.077-.76.427-1.465.987-1.987A3.187 3.187 0 0 1 8.86 6.12c6.654-.266 13.4-.266 20.052 0a3.18 3.18 0 0 1 2.057.853c.56.522.91 1.227.987 1.987a27.72 27.72 0 0 1 0 5.985 3.151 3.151 0 0 1-.987 1.987c-.56.522-1.29.825-2.057.853-6.146.248-12.39.265-18.554.056a.755.755 0 0 0-.71.436.744.744 0 0 0 .373.99c.09.04.186.063.285.067a249.38 249.38 0 0 0 18.668-.056 4.69 4.69 0 0 0 3.023-1.255 4.638 4.638 0 0 0 1.454-2.918c.227-2.096.227-4.21 0-6.305h.002Zm-4.367 12.985a143.558 143.558 0 0 0-20.393 0 4.486 4.486 0 0 0-2.822 1.254 4.436 4.436 0 0 0-1.33 2.773 88.27 88.27 0 0 0 0 16.488 4.436 4.436 0 0 0 1.33 2.772 4.485 4.485 0 0 0 2.822 1.253 143.17 143.17 0 0 0 20.393 0 4.485 4.485 0 0 0 2.822-1.253 4.435 4.435 0 0 0 1.33-2.773 88.49 88.49 0 0 0 0-16.487 4.436 4.436 0 0 0-1.33-2.773 4.486 4.486 0 0 0-2.822-1.254Zm2.655 4.165a81.92 81.92 0 0 1 .245 3.32c-2.434-.06-4.89-.102-7.324-.132-.03-2.043-.083-4.09-.155-6.116 1.494.058 2.984.14 4.47.247a2.98 2.98 0 0 1 1.878.83c.506.49.82 1.144.886 1.843v.008ZM5.722 30.77c2.45-.061 4.923-.104 7.375-.133a323.96 323.96 0 0 0 0 6.83 486.002 486.002 0 0 1-7.375-.132 86.89 86.89 0 0 1 0-6.57v.005Zm8.88 6.715c-.026-2.279-.026-4.58 0-6.86 2.85-.022 5.725-.022 8.576 0 .025 2.28.025 4.58 0 6.86-2.85.024-5.727.024-8.577 0ZM24.68 30.64c2.453.026 4.924.069 7.375.133a86.925 86.925 0 0 1 0 6.57c-2.45.061-4.922.104-7.375.133.025-2.27.025-4.56 0-6.83v-.006Zm-1.682-7.667c.072 2.036.125 4.098.157 6.153a537.701 537.701 0 0 0-8.538 0c.032-2.055.084-4.117.156-6.153 1.37-.04 2.742-.06 4.112-.061a134.31 134.31 0 0 1 4.113.06ZM6.03 25.945c.065-.7.38-1.353.886-1.843a2.98 2.98 0 0 1 1.877-.83c1.486-.108 2.976-.19 4.47-.247a307.9 307.9 0 0 0-.153 6.116 448.28 448.28 0 0 0-7.326.132c.06-1.11.141-2.216.246-3.32v-.008Zm0 16.21a82.694 82.694 0 0 1-.246-3.32c2.434.06 4.89.102 7.325.132.031 2.043.083 4.09.154 6.116-1.494-.06-2.984-.142-4.47-.247a2.981 2.981 0 0 1-1.877-.831 2.948 2.948 0 0 1-.886-1.844v-.006Zm8.739 2.973a311.248 311.248 0 0 1-.156-6.154c1.418.011 2.844.018 4.275.019 1.431 0 2.857-.006 4.275-.02a311.476 311.476 0 0 1-.157 6.155c-2.74.08-5.48.08-8.225 0h-.012Zm16.968-2.973a2.95 2.95 0 0 1-.886 1.843 2.98 2.98 0 0 1-1.877.832 138.36 138.36 0 0 1-4.47.247c.072-2.026.124-4.075.154-6.116 2.436-.027 4.89-.07 7.325-.133a82.114 82.114 0 0 1-.246 3.32v.007Z" fill="#000"></path><path d="M27.592 14.7c-.904 0-1.202-.035-1.912-.412a.753.753 0 0 0-1.096.873.748.748 0 0 0 .384.443c.735.399 1.25.531 1.87.571v.3a.744.744 0 0 0 .457.718.756.756 0 0 0 .999-.423.744.744 0 0 0 .048-.296v-.357c1.377-.28 2.216-1.298 2.358-2.3.133-.912-.308-2.145-1.956-2.624-.817-.235-1.721-.521-2.238-.854a.414.414 0 0 1-.175-.443c.044-.255.258-.57.73-.687a2.393 2.393 0 0 1 1.824.226.753.753 0 0 0 1.181-.489.741.741 0 0 0-.379-.77 3.648 3.648 0 0 0-1.344-.493v-.25a.746.746 0 0 0-.752-.716.754.754 0 0 0-.751.717v.298c-.046.011-.092.02-.134.032-.972.24-1.7.982-1.853 1.891a1.894 1.894 0 0 0 .842 1.945c.548.352 1.31.65 2.633 1.033.627.182.95.54.889.982-.075.524-.668 1.085-1.625 1.09V14.7Z" fill="#000"></path>
  </symbol><symbol  viewBox='0 0 50 50' id='car'>
    <path fill-rule="evenodd" clip-rule="evenodd" d="M25 0c13.807 0 25 11.193 25 25S38.807 50 25 50 0 38.807 0 25 11.193 0 25 0Z" fill="#E63A28"></path><path fill-rule="evenodd" clip-rule="evenodd" d="M38.006 21.09a.634.634 0 0 0-.517-.296h-2.532c-.624-1.966-1.437-3.897-2.36-4.625-3.198-2.518-11.686-2.518-14.884 0-.924.728-1.736 2.659-2.364 4.625H12.82a.631.631 0 0 0-.517.296.92.92 0 0 0-.136.665l.377 2.168c.061.369.334.633.65.633h.75c-.724.999-1.076 2.258-1.079 3.513-.006 1.555.488 2.958 1.392 3.953.01.008.02.02.029.027v3.039c0 .656.446 1.193.998 1.193h2.334c.55 0 .998-.537.998-1.193v-1.221h13.077v1.221c0 .656.446 1.193.999 1.193h2.333c.55 0 .999-.537.999-1.193v-2.981c.955-1.045 1.413-2.487 1.42-3.929.004-1.297-.364-2.603-1.132-3.622h.8c.316 0 .588-.264.653-.633l.375-2.168a.939.939 0 0 0-.134-.665Zm-19.195-2.927c2.548-2.005 10.139-2.005 12.684 0 .498.389 1.134 1.959 1.717 3.883H17.095c.582-1.924 1.218-3.494 1.716-3.883ZM17.787 30.72c-1.082 0-1.963-1.053-1.963-2.351 0-1.295.881-2.347 1.963-2.347 1.086 0 1.967 1.052 1.967 2.347 0 1.298-.881 2.351-1.967 2.351Zm14.758 0c-1.082 0-1.963-1.053-1.963-2.351 0-1.295.881-2.347 1.963-2.347 1.086 0 1.967 1.052 1.967 2.347 0 1.298-.881 2.351-1.967 2.351Z" fill="#fff"></path>
  </symbol><symbol  viewBox='0 0 39 62' id='clock'>
    <path opacity=".2" fill-rule="evenodd" clip-rule="evenodd" d="m35.779 45.503-3.557.633 2.042 11.438c.113.635-.29 1.238-.9 1.347l-17.217 3.062c-.61.109-1.197-.319-1.31-.954L12.796 49.59l-3.557.632c-2.137.38-4.197-1.12-4.594-3.344L.067 21.22c-.398-2.225 1.018-4.343 3.153-4.724l3.557-.632-2.04-11.438c-.115-.635.289-1.239.898-1.347L22.852.017c.61-.109 1.198.318 1.31.953l2.042 11.439 3.557-.633c2.136-.38 4.197 1.12 4.594 3.345l1.105 6.199.99-.177c.61-.107 1.197.318 1.31.955.114.635-.29 1.238-.9 1.347l-.99.176.57 3.18.988-.177c.61-.109 1.198.318 1.31.953.114.636-.29 1.24-.9 1.348l-.988.176 2.083 11.678c.398 2.225-1.018 4.344-3.154 4.724ZM16.842 59.486l15.007-2.67-1.836-10.287-15.007 2.668 1.836 10.29Zm5.316-56.971L7.151 5.183l1.836 10.288 15.007-2.67-1.836-10.286Zm14.566 38.658-4.579-25.659c-.17-.955-1.056-1.6-1.973-1.437l-26.54 4.72c-.918.163-1.527 1.075-1.356 2.03l4.579 25.658c.17.955 1.056 1.601 1.973 1.438l26.54-4.72c.917-.164 1.527-1.075 1.356-2.03Zm-15.436-4.28c-.172.214-.41.349-.66.394-.253.044-.52 0-.757-.142-.85-.51-5.145-3.11-6.24-4.309-.498-.544-1.18-1.429-1.355-2.82-.291-2.314 1.17-4.426 3.328-4.81 1.189-.212 2.256.252 3.009.745.544-.721 1.389-1.528 2.538-1.731 2.158-.384 4.26 1.094 4.788 3.365.316 1.364-.017 2.43-.295 3.113-.617 1.515-3.736 5.426-4.356 6.195Zm2.466-8.792c-.242-1.044-1.225-1.752-2.192-1.58-.787.14-1.463 1.268-1.637 1.651a1.11 1.11 0 0 1-.833.646 1.114 1.114 0 0 1-.994-.351c-.294-.314-1.253-1.108-2.083-.96-.967.172-1.644 1.176-1.51 2.238.07.561.286.995.745 1.497.58.634 3.045 2.244 4.903 3.386 1.342-1.708 3.092-4.063 3.42-4.866.255-.63.308-1.112.181-1.661Zm9.03 12.712-22.357 3.976c-.609.108-1.196-.319-1.309-.954l-3.801-21.3c-.113-.637.29-1.24.9-1.348l22.355-3.977c.61-.107 1.197.32 1.31.955l.973 5.45c.113.635-.29 1.237-.9 1.346-.61.11-1.197-.318-1.31-.954l-.768-4.299-20.145 3.583 3.39 19 20.146-3.583-.767-4.298c-.114-.636.289-1.239.9-1.348.61-.109 1.197.319 1.31.954l.972 5.45c.113.635-.29 1.238-.9 1.347Zm-1.898-10.63a1.133 1.133 0 0 1-1.175-.578 1.208 1.208 0 0 1 .1-1.322c.304-.384.83-.518 1.279-.33.432.18.72.631.714 1.112-.006.55-.397 1.025-.918 1.118Z" fill="#5F8AD4"></path>
  </symbol><symbol  viewBox='0 0 51 52' id='dron'>
    <path opacity=".2" fill-rule="evenodd" clip-rule="evenodd" d="M50.205 23.4 40.03 25.329l3.934 20.778a.977.977 0 0 1-.778 1.143l-4.799.91a.976.976 0 0 1-1.142-.78.978.978 0 0 1 .778-1.143l3.84-.727-3.753-19.818-3.885.738a8.277 8.277 0 0 1-5.67 6.563l.442 2.334 1.824-.346a3.425 3.425 0 0 1 3.996 2.73l.584 3.077a3.429 3.429 0 0 1-2.722 4.005l-5.568 1.055a3.425 3.425 0 0 1-3.996-2.73l-.584-3.078a3.43 3.43 0 0 1 2.723-4.004l1.823-.346-.441-2.334a8.269 8.269 0 0 1-7.675-4.032l-3.887.737 3.752 19.816 3.84-.728a.979.979 0 0 1 .364 1.924l-4.8.91a.977.977 0 0 1-1.141-.78l-3.934-20.778-10.174 1.929a.978.978 0 0 1-1.142-.78l-.729-3.848a.978.978 0 0 1 .778-1.143l5.423-1.029-.826-4.36-5.327 1.009a.978.978 0 0 1-.364-1.923l12.574-2.385a.98.98 0 0 1 .364 1.924l-5.327 1.01.826 4.36 8.717-1.652a8.365 8.365 0 0 1 1.982-3.996 8.18 8.18 0 0 1 4.595-2.585 8.171 8.171 0 0 1 5.22.724 8.36 8.36 0 0 1 3.307 2.992l8.835-1.674-.825-4.361-5.327 1.01a.977.977 0 0 1-1.142-.78.978.978 0 0 1 .778-1.145l12.573-2.383a.977.977 0 0 1 1.142.78.978.978 0 0 1-.778 1.144l-5.326 1.01.826 4.36 5.303-1.005a.977.977 0 0 1 1.142.78l.729 3.848a.978.978 0 0 1-.778 1.144ZM25.619 37.96c-.794.15-1.317.92-1.166 1.715l.582 3.078a1.469 1.469 0 0 0 1.714 1.171l5.566-1.056a1.47 1.47 0 0 0 1.167-1.715l-.583-3.08a1.468 1.468 0 0 0-1.713-1.169L25.62 37.96Zm22.898-18.226-15.783 2.993a.977.977 0 0 1-1.052-.516c-1.267-2.48-4.06-3.85-6.792-3.331-2.732.517-4.83 2.815-5.104 5.585a.976.976 0 0 1-.79.866L3.215 28.325l.363 1.924 15.726-2.982a.975.975 0 0 1 1.064.542 6.31 6.31 0 0 0 11.996-2.275.98.98 0 0 1 .793-.895l15.725-2.982-.364-1.923ZM29.16 41.374a.978.978 0 0 1-.364-1.924.977.977 0 0 1 1.142.78.978.978 0 0 1-.778 1.144ZM23.269 10.32c2.9-.55 5.819-.126 8.439 1.225a.979.979 0 0 1-.893 1.74 11.042 11.042 0 0 0-7.182-1.04 11.044 11.044 0 0 0-6.302 3.598.976.976 0 0 1-1.379.088.98.98 0 0 1-.089-1.381 12.982 12.982 0 0 1 7.406-4.23Zm-9.616 2.278a.976.976 0 0 1-1.379.088.98.98 0 0 1-.089-1.381 17.824 17.824 0 0 1 10.171-5.808 17.813 17.813 0 0 1 11.589 1.681.98.98 0 0 1-.893 1.74A15.894 15.894 0 0 0 22.721 7.42a15.9 15.9 0 0 0-9.068 5.178ZM36.036 4.41a.977.977 0 0 1-.628-.092 20.979 20.979 0 0 0-13.65-1.98 20.997 20.997 0 0 0-11.98 6.84.975.975 0 0 1-1.379.088.981.981 0 0 1-.09-1.382A22.937 22.937 0 0 1 21.395.414a22.91 22.91 0 0 1 14.906 2.162.981.981 0 0 1-.266 1.833Z" fill="#65D45F"></path>
  </symbol><symbol  viewBox='0 0 44 44' id='facebook'>
    <circle cx="22" cy="22" r="22" fill="var(--fill-circle, white)"></circle><path d="m25.719 23 .437-2.875h-2.781V18.25c0-.813.375-1.563 1.625-1.563h1.281V14.22s-1.156-.22-2.25-.22c-2.281 0-3.781 1.406-3.781 3.906v2.219h-2.563V23h2.563v7h3.125v-7h2.344Z" fill="var(--fill-path, #5F8AD4)"></path>
  </symbol><symbol  viewBox='0 0 80 36' id='holder'>
    <path fill-rule="evenodd" clip-rule="evenodd" d="M15 6h50c8.284 0 15 6.715 15 15 0 8.284-6.716 15-15 15H15C6.716 36 0 29.284 0 21 0 12.715 6.716 6 15 6Zm25.001-6 5 6H35l5.001-6Z" fill="#333"></path><path d="M19.948 22.9c.638.506 1.661 1.1 2.838 1.111.77 0 1.463-.231 1.98-.605.517-.374.869-.924.869-1.54s-.341-1.122-.847-1.452c-.506-.341-1.188-.561-1.958-.704h-.022c-.693-.132-1.265-.319-1.65-.583-.385-.264-.561-.55-.572-.935 0-.396.22-.77.605-1.056.385-.275.946-.462 1.573-.462.847 0 1.507.418 2.112.814.11.077.264.044.33-.066a.245.245 0 0 0-.066-.341c-.605-.396-1.364-.891-2.376-.891-.726 0-1.375.209-1.859.561-.484.352-.803.858-.803 1.441 0 .572.319 1.034.792 1.342.473.319 1.1.517 1.815.649h.022c.748.143 1.364.352 1.782.627.418.286.627.616.627 1.056 0 .429-.231.836-.66 1.144-.418.308-1.023.506-1.694.506-1.001.011-1.958-.528-2.53-.99a.235.235 0 0 0-.341.033.255.255 0 0 0 .033.341Zm7.381.836c0 .143.11.253.242.264h3.982a.26.26 0 0 0 .264-.264c0-.154-.11-.275-.264-.275h-3.685v-3.036h3.223a.27.27 0 0 0 0-.539h-3.223v-3.047h3.685c.154 0 .264-.121.264-.275a.26.26 0 0 0-.264-.264h-3.96a.268.268 0 0 0-.264.264v7.172Zm11.14.088c.044.11.154.176.253.176.033 0 .056-.011.1-.011a.276.276 0 0 0 .142-.352l-2.672-7.139c-.034-.099-.144-.165-.264-.165-.11 0-.22.066-.264.165l-2.674 7.139c-.055.132.022.297.154.352.034 0 .078.011.1.011.11 0 .209-.066.252-.176l.683-1.815h3.508l.682 1.815Zm-2.43-6.49 1.55 4.136h-3.112l1.562-4.136Zm8.409 6.193c.12.242.352.352.495.352h.022c.066 0 .12-.011.132-.011a.3.3 0 0 0 .176-.352c-.044-.121-.176-.187-.297-.176-.011-.011-.066-.055-.11-.187-.055-.165-.1-.44-.1-.891 0-.869-.527-1.43-1.033-1.716-.044-.022-.077-.033-.11-.055a2.2 2.2 0 0 0 1.265-1.991 2.19 2.19 0 0 0-2.19-2.2H40.5a.272.272 0 0 0-.242.264v7.172a.27.27 0 0 0 .539 0v-3.047h1.87c.01 0 .022.011.055.022.143.022.55.143.89.385.342.253.628.605.628 1.166 0 .649.077 1.012.209 1.265ZM44.36 18.5c0 .902-.726 1.639-1.617 1.661h-1.947v-3.322h1.903a1.66 1.66 0 0 1 1.66 1.661Zm2.31 1.617c0 2.145 1.793 3.883 4.004 3.883.946 0 1.815-.319 2.486-.836.12-.088.143-.286.033-.385-.077-.132-.253-.154-.385-.066-.572.484-1.32.748-2.134.748-1.925 0-3.465-1.507-3.465-3.344 0-1.881 1.54-3.388 3.465-3.388.814 0 1.562.286 2.156.748.11.088.286.077.374-.055.099-.099.077-.286-.044-.385a4.083 4.083 0 0 0-2.486-.847c-2.211.011-4.004 1.738-4.004 3.927Zm13.051 3.619a.27.27 0 0 0 .539 0v-7.172a.27.27 0 0 0-.539 0v3.322h-3.96v-3.322a.27.27 0 0 0-.539 0v7.172a.27.27 0 0 0 .539 0v-3.322h3.96v3.322Z" fill="#fff"></path>
  </symbol><symbol  viewBox='0 0 44 44' id='instagram'>
    <circle cx="22" cy="22" r="22" fill="var(--fill-circle, white)"></circle><path d="M22 18.406c-2 0-3.594 1.625-3.594 3.594 0 2 1.594 3.594 3.594 3.594A3.594 3.594 0 0 0 25.594 22c0-1.969-1.625-3.594-3.594-3.594Zm0 5.938A2.34 2.34 0 0 1 19.656 22c0-1.281 1.032-2.313 2.344-2.313A2.307 2.307 0 0 1 24.313 22c0 1.313-1.032 2.344-2.313 2.344Zm4.563-6.063a.84.84 0 0 0-.844-.843.84.84 0 0 0-.844.843.84.84 0 0 0 .844.844.84.84 0 0 0 .843-.844Zm2.375.844C28.875 18 28.625 17 27.813 16.187 27 15.376 26 15.126 24.875 15.063c-1.156-.062-4.625-.062-5.781 0-1.125.063-2.094.313-2.938 1.126-.812.812-1.062 1.812-1.125 2.937-.062 1.156-.062 4.625 0 5.781.063 1.125.313 2.094 1.125 2.938.844.812 1.813 1.062 2.938 1.125 1.156.062 4.625.062 5.781 0 1.125-.063 2.125-.313 2.938-1.125.812-.844 1.062-1.813 1.125-2.938.062-1.156.062-4.625 0-5.781Zm-1.5 7c-.22.625-.72 1.094-1.313 1.344-.938.375-3.125.281-4.125.281-1.031 0-3.219.094-4.125-.281a2.37 2.37 0 0 1-1.344-1.344c-.375-.906-.281-3.094-.281-4.125 0-1-.094-3.188.281-4.125a2.41 2.41 0 0 1 1.344-1.313c.906-.375 3.094-.28 4.125-.28 1 0 3.188-.095 4.125.28.594.22 1.063.72 1.313 1.313.375.938.28 3.125.28 4.125 0 1.031.095 3.219-.28 4.125Z" fill="var(--fill-path, #5F8AD4)"></path>
  </symbol><symbol  viewBox='0 0 50 52' id='interaction'>
    <path d="M22.338 3.48c.047.498.27.961.627 1.297.357.337.822.523 1.304.523h.064a16.8 16.8 0 0 1 6.977 1.256 17.348 17.348 0 0 1 5.917 4.044 18.101 18.101 0 0 1 2.62 3.486l-1.096.127c-.42.05-.822.213-1.162.475-.34.26-.61.61-.779 1.014a2.6 2.6 0 0 0 .267 2.491l.724 1.022a.711.711 0 0 0 .99.113.765.765 0 0 0 .283-.471.786.786 0 0 0-.1-.546l-.723-1.021a1.02 1.02 0 0 1-.107-.976.98.98 0 0 1 .303-.399.926.926 0 0 1 .455-.188l2.192-.254a.713.713 0 0 0 .33-.126.752.752 0 0 0 .235-.272.785.785 0 0 0 .004-.71c-1.642-3.292-4.147-6.034-7.225-7.909a18.332 18.332 0 0 0-10.17-2.682.457.457 0 0 1-.328-.119.493.493 0 0 1-.158-.321l-.116-1.262a.51.51 0 0 1 .114-.369.467.467 0 0 1 .332-.163 20.472 20.472 0 0 1 11.94 3.325c3.572 2.324 6.39 5.707 8.095 9.713a.75.75 0 0 0 .304.354.708.708 0 0 0 .447.097l2.565-.297a.912.912 0 0 1 .485.075c.152.07.284.18.383.318a1.005 1.005 0 0 1 .103.979l-3.45 8.203a.977.977 0 0 1-.305.399.912.912 0 0 1-.941.11.954.954 0 0 1-.383-.32l-2.657-3.746a.712.712 0 0 0-1.007-.137.767.767 0 0 0-.288.483.787.787 0 0 0 .115.557l2.657 3.746a2.4 2.4 0 0 0 .849.754c.336.177.708.27 1.085.269.091 0 .184 0 .276-.017a2.333 2.333 0 0 0 1.165-.47 2.47 2.47 0 0 0 .777-1.019l3.45-8.203a2.594 2.594 0 0 0-.266-2.49 2.43 2.43 0 0 0-.975-.81 2.33 2.33 0 0 0-1.233-.196l-2.036.236c-1.877-4.156-4.888-7.646-8.659-10.035A21.844 21.844 0 0 0 24.06.016c-.262.01-.52.077-.758.194-.237.118-.45.285-.622.49a2.03 2.03 0 0 0-.386.707c-.08.26-.11.535-.085.807l.13 1.266Zm5.321 45.044a2.045 2.045 0 0 0-.651-1.32 1.896 1.896 0 0 0-1.343-.5c-3.104.1-6.176-.662-8.903-2.206a17.8 17.8 0 0 1-6.61-6.58l1.095-.128c.42-.048.822-.211 1.163-.472.34-.261.61-.611.78-1.015a2.597 2.597 0 0 0-.268-2.492L7.807 26.6a2.43 2.43 0 0 0-.976-.81 2.328 2.328 0 0 0-2.398.279 2.49 2.49 0 0 0-.778 1.015l-3.45 8.203A2.597 2.597 0 0 0 .47 37.78c.251.354.587.634.975.81a2.33 2.33 0 0 0 1.233.197l2.033-.237c.122.27.25.539.382.804.09.18.243.315.429.376a.707.707 0 0 0 .559-.049.755.755 0 0 0 .362-.446.79.79 0 0 0-.048-.581c-.202-.406-.39-.813-.564-1.227a.754.754 0 0 0-.305-.355.711.711 0 0 0-.447-.097l-2.562.298a.913.913 0 0 1-.486-.076.953.953 0 0 1-.383-.318 1.006 1.006 0 0 1-.104-.98l3.45-8.202a.977.977 0 0 1 .305-.399.912.912 0 0 1 .941-.11.95.95 0 0 1 .383.32l5.11 7.207a1.006 1.006 0 0 1 .107.976.978.978 0 0 1-.304.398.926.926 0 0 1-.454.187l-2.192.256a.714.714 0 0 0-.33.127.752.752 0 0 0-.235.271.785.785 0 0 0-.003.71c1.642 3.292 4.147 6.034 7.225 7.908a18.333 18.333 0 0 0 10.169 2.682.456.456 0 0 1 .328.119.494.494 0 0 1 .16.321l.115 1.262a.508.508 0 0 1-.115.368.468.468 0 0 1-.332.164 20.277 20.277 0 0 1-8.47-1.498 20.94 20.94 0 0 1-7.184-4.9 22.004 22.004 0 0 1-2.344-2.902.712.712 0 0 0-1.016-.174.766.766 0 0 0-.299.488.79.79 0 0 0 .116.565 23.536 23.536 0 0 0 2.514 3.1 22.418 22.418 0 0 0 7.287 5.074 21.713 21.713 0 0 0 9.446 1.768c.263-.01.52-.077.758-.195.237-.117.45-.284.623-.49.173-.206.304-.446.385-.706.081-.26.11-.535.086-.807l-.116-1.262ZM11.863 24.67c2.346 0 4.64-.724 6.59-2.079a12.243 12.243 0 0 0 4.37-5.535 12.788 12.788 0 0 0 .674-7.126 12.491 12.491 0 0 0-3.246-6.314A11.73 11.73 0 0 0 14.176.24a11.444 11.444 0 0 0-6.854.702A11.975 11.975 0 0 0 2 5.486a12.683 12.683 0 0 0-2 6.852c.004 3.27 1.255 6.404 3.479 8.716 2.224 2.312 5.239 3.612 8.384 3.616Zm0-23.143c2.056 0 4.066.634 5.776 1.822a10.73 10.73 0 0 1 3.83 4.85c.787 1.976.993 4.15.592 6.246a10.948 10.948 0 0 1-2.846 5.535 10.28 10.28 0 0 1-5.323 2.958 10.03 10.03 0 0 1-6.007-.614 10.496 10.496 0 0 1-4.667-3.98 11.116 11.116 0 0 1-1.753-6.006c.003-2.866 1.1-5.614 3.049-7.64 1.949-2.027 4.592-3.167 7.349-3.17Z" fill="#000"></path><path d="M11.863 20.912a8.027 8.027 0 0 0 4.582-1.445 8.513 8.513 0 0 0 3.038-3.849 8.89 8.89 0 0 0 .47-4.955 8.685 8.685 0 0 0-2.258-4.39 8.156 8.156 0 0 0-4.224-2.347 7.957 7.957 0 0 0-4.766.489 8.327 8.327 0 0 0-3.701 3.159 8.819 8.819 0 0 0-1.39 4.764c.003 2.274.873 4.453 2.42 6.06 1.546 1.608 3.642 2.512 5.829 2.514Zm0-15.627a6.6 6.6 0 0 1 3.768 1.188 7 7 0 0 1 2.499 3.165 7.311 7.311 0 0 1 .386 4.075 7.142 7.142 0 0 1-1.857 3.61 6.707 6.707 0 0 1-3.473 1.93 6.544 6.544 0 0 1-3.919-.401 6.848 6.848 0 0 1-3.044-2.597 7.252 7.252 0 0 1-1.143-3.918 7.206 7.206 0 0 1 1.989-4.984 6.664 6.664 0 0 1 4.794-2.068Z" fill="#000"></path><path d="M8.883 16.552c.854.48 1.443.63 2.185.677v.469a.79.79 0 0 0 .204.56.734.734 0 0 0 .529.234.71.71 0 0 0 .53-.235.766.766 0 0 0 .203-.56v-.523c1.563-.292 2.513-1.474 2.67-2.64.182-1.354-.652-2.522-2.13-2.969-.932-.283-1.967-.625-2.565-1.026a.611.611 0 0 1-.222-.284.639.639 0 0 1-.028-.365c.055-.341.325-.76.912-.913.22-.056.446-.09.672-.098h.012a2.491 2.491 0 0 1 1.502.406.712.712 0 0 0 1.026-.152.785.785 0 0 0-.146-1.067A3.775 3.775 0 0 0 12.53 7.4v-.407a.776.776 0 0 0-.225-.518.719.719 0 0 0-.508-.212c-.19 0-.37.076-.508.212a.776.776 0 0 0-.225.518v.454c-.08.018-.162.035-.246.055-1.055.271-1.843 1.114-2.008 2.141a2.21 2.21 0 0 0 .131 1.232c.16.388.428.717.769.947.61.406 1.464.76 2.95 1.21.77.233 1.172.705 1.089 1.295-.121.9-1.098 1.392-1.954 1.396-.989.007-1.38-.031-2.214-.501a.712.712 0 0 0-.81.08.756.756 0 0 0-.266.513.79.79 0 0 0 .161.558.753.753 0 0 0 .22.19l-.003-.01Zm40.316 13.106a.768.768 0 0 0-.25-.452.716.716 0 0 0-.472-.178H30.293a.716.716 0 0 0-.472.178.768.768 0 0 0-.25.452 57.738 57.738 0 0 0 0 19.168.77.77 0 0 0 .25.452.717.717 0 0 0 .471.18h18.185a.72.72 0 0 0 .472-.18.77.77 0 0 0 .25-.452 57.738 57.738 0 0 0 0-19.168Zm-7.609.892v7.312l-1.814-1.189a.716.716 0 0 0-.782 0l-1.814 1.19V30.55h4.41Zm6.267 17.388H30.914a56.137 56.137 0 0 1 0-17.384h4.802v8.692c0 .136.035.27.102.387a.748.748 0 0 0 .277.28.71.71 0 0 0 .745-.022l2.546-1.67 2.546 1.67a.72.72 0 0 0 .909-.106.778.778 0 0 0 .215-.539v-8.692h4.803a56.143 56.143 0 0 1 0 17.384Z" fill="#000"></path>
  </symbol><symbol  viewBox='0 0 52 52' id='joystick'>
    <path d="M51.329 3.654a3.337 3.337 0 0 0-.934-2.016 3.21 3.21 0 0 0-1.974-.952 143.81 143.81 0 0 0-28.053 0 3.21 3.21 0 0 0-1.98.953 3.337 3.337 0 0 0-.934 2.02c-.7 7.456-.852 14.954-.456 22.432-2.737.08-5.486.221-8.261.427a9.295 9.295 0 0 0-6.1 2.939 9.679 9.679 0 0 0-2.59 6.36c-.06 2.266-.062 4.565-.008 6.828a9.657 9.657 0 0 0 2.052 5.759.75.75 0 0 0 1.058.11.79.79 0 0 0 .133-1.077 8.09 8.09 0 0 1-1.72-4.827c-.053-2.238-.05-4.51.008-6.747a8.079 8.079 0 0 1 2.16-5.334 7.757 7.757 0 0 1 5.114-2.457c8.84-.667 17.716-.67 26.556-.01a7.744 7.744 0 0 1 5.103 2.442 8.064 8.064 0 0 1 2.165 5.313c.06 2.242.06 4.525.008 6.778a8.112 8.112 0 0 1-2.342 5.531 7.78 7.78 0 0 1-5.45 2.31h-.743a7.626 7.626 0 0 1-4.588-1.553 7.896 7.896 0 0 1-2.789-4.031 4.012 4.012 0 0 0-1.415-2.072 3.874 3.874 0 0 0-2.347-.797h-1.76c-.85 0-1.675.28-2.355.798a4.013 4.013 0 0 0-1.416 2.08 7.896 7.896 0 0 1-2.788 4.03 7.626 7.626 0 0 1-4.586 1.553h-.743a7.694 7.694 0 0 1-3.995-1.148.747.747 0 0 0-.576-.09.763.763 0 0 0-.47.353.792.792 0 0 0-.087.588c.048.2.172.373.345.48A9.18 9.18 0 0 0 9.345 52h.758a9.168 9.168 0 0 0 5.482-1.868 9.492 9.492 0 0 0 3.342-4.814c.146-.509.45-.956.864-1.274a2.382 2.382 0 0 1 1.438-.496h1.76a2.385 2.385 0 0 1 1.438.496c.415.318.718.765.865 1.273a9.491 9.491 0 0 0 3.347 4.82A9.167 9.167 0 0 0 34.129 52h.757a9.286 9.286 0 0 0 6.51-2.754 9.682 9.682 0 0 0 2.798-6.604c.056-2.284.053-4.592 0-6.86 0-.052 0-.102-.008-.151 1.411-.097 2.833-.213 4.239-.352a3.215 3.215 0 0 0 1.973-.957 3.34 3.34 0 0 0 .93-2.018c.896-9.528.896-19.122 0-28.65Zm-1.517 28.502a1.768 1.768 0 0 1-.494 1.07 1.7 1.7 0 0 1-1.047.504c-1.42.139-2.854.257-4.279.353a9.58 9.58 0 0 0-2.293-4.55 13.614 13.614 0 0 0 3.881-3.9 13.926 13.926 0 0 0 2.052-5.15 14.045 14.045 0 0 0-.11-5.559 13.9 13.9 0 0 0-2.257-5.06.768.768 0 0 0-.498-.31.746.746 0 0 0-.566.141.773.773 0 0 0-.303.51.792.792 0 0 0 .138.578 12.33 12.33 0 0 1 2.022 4.588 12.46 12.46 0 0 1 .037 5.032 12.34 12.34 0 0 1-1.953 4.62 12.054 12.054 0 0 1-3.613 3.422 9.244 9.244 0 0 0-5.023-1.936c-3.386-.25-6.733-.407-10.083-.468a12.352 12.352 0 0 1-3.014-8.401 12.328 12.328 0 0 1 3.41-8.242 11.832 11.832 0 0 1 8.002-3.648 11.788 11.788 0 0 1 8.285 2.91.75.75 0 0 0 1.066-.096.788.788 0 0 0-.083-1.09 13.296 13.296 0 0 0-8.99-3.237 13.321 13.321 0 0 0-8.838 3.652 13.863 13.863 0 0 0-4.256 8.712 13.973 13.973 0 0 0 2.457 9.407c-1.645-.01-3.292 0-4.94.033-.395-7.415-.245-14.85.448-22.243.039-.405.214-.783.495-1.07a1.704 1.704 0 0 1 1.047-.506c9.234-.903 18.53-.903 27.764 0a1.7 1.7 0 0 1 1.047.506c.282.287.456.665.494 1.07a151.38 151.38 0 0 1 0 28.354l-.005.004Z" fill="#000"></path><path d="M34.4 14.825a3.04 3.04 0 0 0-1.716.532 3.14 3.14 0 0 0-1.137 1.415 3.216 3.216 0 0 0-.176 1.822 3.18 3.18 0 0 0 .845 1.615c.432.441.982.741 1.581.863.6.122 1.22.06 1.784-.18a3.102 3.102 0 0 0 1.386-1.16 3.202 3.202 0 0 0-.385-3.982 3.06 3.06 0 0 0-2.182-.925Zm0 4.75a1.54 1.54 0 0 1-.87-.266 1.59 1.59 0 0 1-.58-.716 1.63 1.63 0 0 1 .335-1.742 1.534 1.534 0 0 1 1.704-.35c.287.12.532.324.704.586a1.623 1.623 0 0 1-.19 2.017c-.292.3-.69.47-1.103.471ZM10.369 31.127h-1.22a2.135 2.135 0 0 0-1.52.647c-.402.412-.63.971-.63 1.554v1.474H5.553c-.572 0-1.12.233-1.524.646a2.229 2.229 0 0 0-.632 1.556v1.245a2.23 2.23 0 0 0 .634 1.553 2.13 2.13 0 0 0 1.522.643h1.443v1.475c.002.583.23 1.142.635 1.553.404.412.952.643 1.523.643h1.219c.571 0 1.12-.233 1.524-.646.404-.412.631-.972.632-1.556v-1.469h1.444c.57 0 1.118-.233 1.522-.645.404-.413.632-.972.632-1.555V37c0-.584-.227-1.143-.631-1.556a2.135 2.135 0 0 0-1.523-.646h-1.448v-1.47a2.22 2.22 0 0 0-.633-1.556 2.135 2.135 0 0 0-1.523-.645Zm3.6 5.231c.167 0 .328.069.446.19a.653.653 0 0 1 .185.456v1.245a.652.652 0 0 1-.185.456.625.625 0 0 1-.446.188h-2.207a.754.754 0 0 0-.538.229.787.787 0 0 0-.223.55v2.252a.655.655 0 0 1-.185.456.627.627 0 0 1-.447.19h-1.22a.626.626 0 0 1-.445-.19.653.653 0 0 1-.185-.456v-2.256a.787.787 0 0 0-.224-.55.755.755 0 0 0-.539-.229H5.553a.626.626 0 0 1-.447-.189.653.653 0 0 1-.186-.455V37a.65.65 0 0 1 .186-.456.628.628 0 0 1 .447-.19H7.76a.748.748 0 0 0 .54-.227.779.779 0 0 0 .223-.55v-2.25c0-.17.066-.334.185-.455a.624.624 0 0 1 .446-.189h1.219c.167 0 .328.068.447.189.118.12.185.285.185.456v2.253c0 .206.08.404.223.55a.753.753 0 0 0 .538.227h2.203ZM39.7 34.296c0-.626-.183-1.238-.523-1.759a3.115 3.115 0 0 0-1.392-1.166 3.04 3.04 0 0 0-1.791-.18 3.08 3.08 0 0 0-1.587.867 3.187 3.187 0 0 0-.848 1.621 3.234 3.234 0 0 0 .176 1.83 3.153 3.153 0 0 0 1.143 1.42c.51.348 1.11.533 1.722.533a3.07 3.07 0 0 0 2.191-.928 3.202 3.202 0 0 0 .908-2.238Zm-4.676 0c0-.318.093-.63.266-.895.173-.264.42-.47.708-.593a1.546 1.546 0 0 1 1.718.35 1.643 1.643 0 0 1 .34 1.755 1.596 1.596 0 0 1-.58.722 1.553 1.553 0 0 1-1.99-.201 1.629 1.629 0 0 1-.462-1.138Zm-5.52 6.086c0 .626.181 1.238.522 1.759.34.52.824.927 1.39 1.166a3.04 3.04 0 0 0 1.792.181 3.08 3.08 0 0 0 1.587-.866 3.19 3.19 0 0 0 .85-1.621 3.235 3.235 0 0 0-.177-1.83 3.153 3.153 0 0 0-1.142-1.42 3.054 3.054 0 0 0-1.722-.534 3.072 3.072 0 0 0-2.19.928 3.205 3.205 0 0 0-.91 2.236Zm4.676 0c0 .318-.092.63-.265.894a1.584 1.584 0 0 1-.707.594 1.547 1.547 0 0 1-1.718-.348 1.642 1.642 0 0 1-.342-1.755c.119-.294.32-.546.58-.723a1.553 1.553 0 0 1 1.99.2c.295.302.462.71.462 1.138Zm-10.669-.798a1.934 1.934 0 0 0 1.426-.57 2.049 2.049 0 0 0 0-2.881 1.934 1.934 0 0 0-1.426-.57h-2.783a1.934 1.934 0 0 0-1.426.57 2.049 2.049 0 0 0 0 2.881c.189.187.412.334.657.432.244.098.506.145.769.138h2.783Zm-3.229-2.01a.46.46 0 0 1 .13-.322.441.441 0 0 1 .316-.133h2.782a.437.437 0 0 1 .33.124.454.454 0 0 1 .14.33.462.462 0 0 1-.14.33.443.443 0 0 1-.33.125h-2.782a.438.438 0 0 1-.412-.28.462.462 0 0 1-.034-.174Z" fill="#000"></path>
  </symbol><symbol  viewBox='0 0 69 65' id='laptop'>
    <path opacity=".2" fill-rule="evenodd" clip-rule="evenodd" d="M65.791 43.149 21.548 64.443a5.65 5.65 0 0 1-7.542-2.664l-1.47-3.08a1.011 1.011 0 0 1 .472-1.347l1.814-.874L.502 26.492a5.146 5.146 0 0 1 2.4-6.845L42.678.505a5.107 5.107 0 0 1 6.817 2.408l14.321 29.985 1.815-.873a1.005 1.005 0 0 1 1.343.474l1.47 3.08c1.347 2.826.159 6.213-2.654 7.57ZM47.681 3.785a3.096 3.096 0 0 0-4.133-1.46L3.77 21.47a3.12 3.12 0 0 0-1.454 4.15l14.32 29.986L62.004 33.77 47.682 3.785ZM35.81 48.618a3.017 3.017 0 0 0 3.436.587l3.63-1.748a3.037 3.037 0 0 0 1.696-3.056l-8.762 4.217ZM66.63 36.45l-1.035-2.169-19.145 9.215a5.064 5.064 0 0 1-2.706 5.782l-3.629 1.746a5.025 5.025 0 0 1-6.185-1.503l-19.146 9.214 1.037 2.169a3.638 3.638 0 0 0 4.856 1.716l44.245-21.294a3.666 3.666 0 0 0 1.708-4.876ZM4.57 23.326 44.49 4.112a1.005 1.005 0 0 1 1.342.474l13.05 27.326c.24.502.029 1.106-.473 1.347L18.49 52.472a1.004 1.004 0 0 1-1.343-.474L4.096 24.674a1.012 1.012 0 0 1 .473-1.348Zm13.957 26.889 38.107-18.341L44.453 6.37 6.347 24.71l12.18 25.504Z" fill="#E63A28"></path>
  </symbol><symbol  viewBox='0 0 54 54' id='logo'>
    <path fill-rule="evenodd" clip-rule="evenodd" d="M52.923 19.526c-.724 3.182-1.44 6.365-2.166 9.547-1.468-1.862-2.8-3.828-4.208-5.734.62-2.486 1.18-4.988 1.747-7.49.427-1.924.658-3.985.013-5.89-1.149-3.158-4.826-5.097-8.077-4.306-2.817.603-5.111 2.44-7.56 3.844-6.381 3.702-13.201 6.543-19.862 9.675.562-.966 1.51-1.603 2.292-2.372 4.848-4.45 10.219-8.272 15.493-12.19C33.77 2.274 37.45.246 41.488.216c3.924-.194 7.794 1.76 10.188 4.837 1.67 2.191 2.412 4.998 2.316 7.737.043 2.292-.577 4.518-1.07 6.736ZM5.84 44.17c1.128 3.278 5.001 5.236 8.32 4.327 2.648-.593 4.798-2.338 7.108-3.658 6.455-3.813 13.41-6.65 20.171-9.845-3.575 3.911-7.867 7.08-12.064 10.287-3.922 2.792-7.563 6.156-12.137 7.863-3.328 1.166-7.195 1.25-10.362-.433C3.51 51.12.922 47.876.372 44.16c-.433-2.354-.203-4.773.332-7.09.897-3.991 1.815-7.974 2.703-11.965a183.039 183.039 0 0 1 4.209 5.782c-.63 2.469-1.161 4.96-1.736 7.445-.44 1.904-.719 3.95-.04 5.837Z" fill="#2B5AE1"></path><path fill-rule="evenodd" clip-rule="evenodd" d="M52.66 46.861c-1.547 3.297-4.593 5.937-8.23 6.615-4.134.941-8.253-.488-12.272-1.328-2.389-.546-4.784-1.07-7.17-1.63 1.798-1.492 3.79-2.734 5.628-4.176 2.767.598 5.514 1.294 8.288 1.871 2.195.423 4.668.46 6.583-.847 2.223-1.564 3.513-4.461 2.94-7.145-.323-1.782-1.188-3.397-2.15-4.912-4.584-7.152-7.868-15.013-11.372-22.716 3.873 3.644 7.102 7.893 10.308 12.114 2.556 3.625 5.622 6.97 7.408 11.07 1.506 3.478 1.8 7.64.04 11.084ZM14.903 5.554c-2.18-.404-4.647-.469-6.537.865-1.878 1.323-3.117 3.6-3.009 5.916-.018 2.527 1.343 4.776 2.667 6.836 4.178 6.576 7.14 13.795 10.447 20.817.187.432.305.892.418 1.353-3.907-4.184-7.58-8.58-10.93-13.218-2.599-3.591-5.637-6.999-7.143-11.23C-.37 13.559-.33 9.7 1.382 6.554 2.73 3.9 5.042 1.7 7.891.731c2.866-1.024 6.012-.856 8.944-.205 4.008.91 8.02 1.809 12.026 2.73-1.82 1.486-3.781 2.79-5.666 4.19-2.76-.646-5.52-1.306-8.293-1.892Z" fill="#E63A28"></path>
  </symbol><symbol  viewBox='0 0 65 56' id='people'>
    <path d="M32.5 21.846c2.184 0 4.32-.64 6.136-1.84a10.95 10.95 0 0 0 4.068-4.903 10.811 10.811 0 0 0 .629-6.31 10.886 10.886 0 0 0-3.023-5.594A11.083 11.083 0 0 0 34.655.21a11.16 11.16 0 0 0-6.382.622 11.02 11.02 0 0 0-4.956 4.024 10.837 10.837 0 0 0-1.862 6.068 10.874 10.874 0 0 0 3.239 7.72 11.12 11.12 0 0 0 7.806 3.203Zm0-18.08c1.431 0 2.83.42 4.02 1.207a7.174 7.174 0 0 1 2.665 3.211 7.083 7.083 0 0 1 .412 4.135 7.132 7.132 0 0 1-1.98 3.664 7.262 7.262 0 0 1-3.705 1.96 7.311 7.311 0 0 1-4.181-.408 7.22 7.22 0 0 1-3.248-2.636 7.101 7.101 0 0 1-1.22-3.976 7.125 7.125 0 0 1 2.123-5.058A7.286 7.286 0 0 1 32.5 3.767Z" fill="url(#a)"></path><path d="M54.844 21.846c1.38 0 2.73-.405 3.879-1.163a6.923 6.923 0 0 0 2.572-3.1 6.836 6.836 0 0 0 .397-3.99 6.882 6.882 0 0 0-1.91-3.535 7.007 7.007 0 0 0-3.576-1.89 7.055 7.055 0 0 0-4.034.393 6.966 6.966 0 0 0-3.134 2.543 6.851 6.851 0 0 0-1.177 3.837 6.874 6.874 0 0 0 2.047 4.88 7.028 7.028 0 0 0 4.936 2.025Zm0-10.044a3.2 3.2 0 0 1 1.763.529c.522.345.929.835 1.169 1.409a3.107 3.107 0 0 1-.688 3.42 3.206 3.206 0 0 1-3.459.68 3.167 3.167 0 0 1-1.424-1.155 3.115 3.115 0 0 1-.535-1.744c0-.832.335-1.63.93-2.219a3.196 3.196 0 0 1 2.244-.92Z" fill="url(#b)"></path><path d="M56.379 26.115h-2.944a8.704 8.704 0 0 0-4.645 1.34 8.567 8.567 0 0 0-3.187 3.602 15.326 15.326 0 0 0-5.137-3.653 15.49 15.49 0 0 0-6.192-1.289h-3.555c-2.132 0-4.24.438-6.191 1.29-1.951.85-3.7 2.094-5.138 3.652a8.568 8.568 0 0 0-3.184-3.6 8.703 8.703 0 0 0-4.641-1.342H8.62a8.654 8.654 0 0 0-6.082 2.474 8.463 8.463 0 0 0-2.539 6v13.71a3.648 3.648 0 0 0 1.094 2.608 3.76 3.76 0 0 0 2.64 1.075h11.644a4.386 4.386 0 0 0 1.427 2.86A4.48 4.48 0 0 0 19.808 56h25.39a4.48 4.48 0 0 0 3.004-1.158 4.387 4.387 0 0 0 1.427-2.86h11.51a3.887 3.887 0 0 0 2.727-1.117A3.8 3.8 0 0 0 65 48.17V34.59a8.463 8.463 0 0 0-2.539-6 8.654 8.654 0 0 0-6.082-2.474Zm-52.57 8.474a4.712 4.712 0 0 1 1.421-3.338 4.818 4.818 0 0 1 3.391-1.37h2.944a4.819 4.819 0 0 1 3.39 1.37 4.712 4.712 0 0 1 1.422 3.338v1.289c-1.281 3.298-1.016 5.273-1.016 12.334H3.81V34.59Zm42.021 17.01a.628.628 0 0 1-.186.445.642.642 0 0 1-.449.186h-25.39a.641.641 0 0 1-.451-.185.628.628 0 0 1-.188-.446V41.31a11.377 11.377 0 0 1 3.389-8.078 11.634 11.634 0 0 1 8.168-3.35h3.554a11.636 11.636 0 0 1 8.168 3.35 11.379 11.379 0 0 1 3.389 8.078L45.83 51.6Zm15.361-3.428c0 .063.711.041-11.552.041 0-7.113.262-9.04-1.016-12.334v-1.289a4.712 4.712 0 0 1 1.422-3.338 4.819 4.819 0 0 1 3.39-1.37h2.944a4.818 4.818 0 0 1 3.39 1.37 4.712 4.712 0 0 1 1.422 3.338V48.17Z" fill="url(#c)"></path><path d="M10.156 21.846a7.039 7.039 0 0 0 3.88-1.163 6.923 6.923 0 0 0 2.571-3.1 6.835 6.835 0 0 0 .398-3.99 6.882 6.882 0 0 0-1.911-3.535 7.007 7.007 0 0 0-3.575-1.89 7.055 7.055 0 0 0-4.035.393 6.966 6.966 0 0 0-3.133 2.543 6.851 6.851 0 0 0-1.177 3.837 6.874 6.874 0 0 0 2.047 4.88 7.028 7.028 0 0 0 4.935 2.025Zm0-10.044c.628 0 1.242.184 1.763.529.522.345.93.835 1.17 1.409a3.107 3.107 0 0 1-.689 3.42 3.206 3.206 0 0 1-3.459.68 3.167 3.167 0 0 1-1.424-1.155 3.115 3.115 0 0 1-.535-1.744c.001-.832.336-1.63.931-2.219a3.195 3.195 0 0 1 2.243-.92Z" fill="url(#d)"></path><defs><lineargradient id="a" x1="15.142" y1="9.758" x2="66.153" y2="47.718" gradientunits="userSpaceOnUse"><stop stop-color="#1C468A"></stop><stop offset="1" stop-color="#5E89D0"></stop></lineargradient><lineargradient id="b" x1="15.142" y1="9.758" x2="66.153" y2="47.718" gradientunits="userSpaceOnUse"><stop stop-color="#1C468A"></stop><stop offset="1" stop-color="#5E89D0"></stop></lineargradient><lineargradient id="c" x1="15.142" y1="9.758" x2="66.153" y2="47.718" gradientunits="userSpaceOnUse"><stop stop-color="#1C468A"></stop><stop offset="1" stop-color="#5E89D0"></stop></lineargradient><lineargradient id="d" x1="15.142" y1="9.758" x2="66.153" y2="47.718" gradientunits="userSpaceOnUse"><stop stop-color="#1C468A"></stop><stop offset="1" stop-color="#5E89D0"></stop></lineargradient></defs>
  </symbol><symbol  viewBox='0 0 52 50' id='photo'>
    <path opacity=".2" fill-rule="evenodd" clip-rule="evenodd" d="m51.774 25.208-6.955 21.564c-.789 2.446-3.412 3.792-5.848 3.002L3.213 38.158c-2.436-.792-3.775-3.425-2.987-5.87l6.955-21.565c.789-2.445 3.412-3.79 5.848-3l2.202.715.338-1.05a3.298 3.298 0 0 1 4.151-2.13 3.314 3.314 0 0 1 2.12 4.167l-.339 1.049 4.979 1.617 4.707-4.18a.912.912 0 0 1 .888-.186l12.077 3.923c.308.1.54.356.611.673l1.375 6.155 2.65.86c2.435.792 3.775 3.425 2.986 5.871Zm-32.618-18.2a1.467 1.467 0 0 0-1.845.947l-.338 1.05 2.786.904.34-1.048a1.474 1.474 0 0 0-.943-1.853Zm23.936 6.229-11.084-3.6-3.506 3.113 15.613 5.07-1.023-4.583Zm5.13 7.85L12.464 9.472a2.815 2.815 0 0 0-3.54 1.819L1.968 32.855a2.828 2.828 0 0 0 1.808 3.555l35.758 11.614a2.814 2.814 0 0 0 3.542-1.818l6.956-21.563a2.829 2.829 0 0 0-1.81-3.556ZM27.847 41.522c-6.051-1.965-9.38-8.508-7.42-14.584a11.534 11.534 0 0 1 2.208-3.966.914.914 0 0 1 1.29-.1c.385.33.43.91.1 1.296a9.689 9.689 0 0 0-1.856 3.336c-1.649 5.112 1.151 10.615 6.241 12.269 5.091 1.653 10.574-1.16 12.223-6.272 1.648-5.112-1.152-10.616-6.242-12.269a9.626 9.626 0 0 0-3.787-.443.919.919 0 0 1-.15-1.831c1.521-.128 3.036.05 4.5.525 6.051 1.965 9.38 8.507 7.42 14.584-1.959 6.076-8.476 9.42-14.527 7.455Zm5.867-18.191c3.937 1.279 6.104 5.537 4.828 9.49-1.275 3.956-5.516 6.132-9.455 4.852-3.938-1.279-6.104-5.536-4.828-9.49 1.275-3.955 5.517-6.131 9.455-4.852Zm-4.062 12.594c2.978.967 6.184-.68 7.148-3.67.964-2.988-.673-6.208-3.65-7.175-2.979-.967-6.186.68-7.149 3.668-.964 2.99.673 6.21 3.65 7.177Zm2.863-8.878a3.637 3.637 0 0 1 2.325 4.573.914.914 0 0 1-1.152.591.92.92 0 0 1-.589-1.158 1.796 1.796 0 0 0-1.148-2.256.918.918 0 0 1-.589-1.157.915.915 0 0 1 1.153-.593Zm-5.53-5.219a.922.922 0 0 1-.7.056.924.924 0 0 1-.588-1.157.919.919 0 0 1 1.153-.592.922.922 0 0 1 .588 1.158.922.922 0 0 1-.454.535Zm-9.231-2.715-4.53-1.47a.92.92 0 0 1 .565-1.75l4.53 1.471a.92.92 0 0 1-.565 1.75ZM47.929 6.506l-4.231 2.17a.915.915 0 0 1-1.232-.4.922.922 0 0 1 .4-1.236l4.23-2.171a.914.914 0 0 1 1.232.4.921.921 0 0 1-.399 1.237Zm-7.92.29a.915.915 0 1 1-1.742-.567l1.505-4.668A.915.915 0 0 1 40.925.97a.92.92 0 0 1 .59 1.158l-1.507 4.667Zm-4.6-.812a.912.912 0 0 1-1.232-.4l-2.16-4.246a.92.92 0 0 1 .4-1.237.914.914 0 0 1 1.23.4l2.162 4.248a.92.92 0 0 1-.4 1.235Z" fill="#D2B92F"></path>
  </symbol><symbol  viewBox='0 0 44 44' id='pinterest'>
    <circle cx="22" cy="22" r="22" fill="var(--fill-circle, white)"></circle><path d="M22.375 14.219c-3.219 0-6.375 2.125-6.375 5.594 0 2.187 1.219 3.437 1.969 3.437.312 0 .5-.844.5-1.094 0-.281-.75-.906-.75-2.125 0-2.5 1.906-4.281 4.375-4.281 2.156 0 3.718 1.219 3.718 3.438 0 1.656-.656 4.75-2.812 4.75-.781 0-1.469-.563-1.469-1.344 0-1.188.844-2.344.844-3.563 0-2.062-2.938-1.687-2.938.813 0 .531.063 1.093.313 1.593-.438 1.844-1.313 4.625-1.313 6.532 0 .593.063 1.156.125 1.75.094.125.063.125.22.062 1.562-2.156 1.53-2.593 2.218-5.406.406.719 1.375 1.125 2.188 1.125C26.5 25.5 28 22.25 28 19.344c0-3.094-2.688-5.125-5.625-5.125Z" fill="var(--fill-path, #5F8AD4)"></path>
  </symbol><symbol  viewBox='0 0 25 28' id='playMarket'>
    <path d="M.573.457c-.316.315-.527.84-.527 1.47v23.205c0 .63.21 1.155.527 1.47l.105.105 13.057-13.02v-.21L.573.457Z" fill="url(#a)"></path><path d="m18.052 18.097-4.317-4.305v-.315l4.317-4.305.105.105 5.16 2.94c1.474.84 1.474 2.205 0 3.045l-5.265 2.835Z" fill="url(#b)"></path><path d="m18.157 17.991-4.422-4.41L.573 26.706c.526.525 1.263.525 2.21.105l15.374-8.82Z" fill="url(#c)"></path><path d="M18.157 9.172 2.784.457C1.836-.068 1.099.037.573.562l13.162 13.02 4.422-4.41Z" fill="url(#d)"></path><path opacity=".2" d="m18.052 17.887-15.268 8.61c-.843.525-1.58.42-2.106 0l-.105.105.105.105c.526.42 1.263.525 2.106 0l15.268-8.82Z" fill="#000"></path><path opacity=".12" d="M.573 26.496c-.316-.315-.421-.84-.421-1.47v.105c0 .63.21 1.155.526 1.47v-.105H.573Zm22.744-11.55-5.265 2.94.105.105 5.16-2.94c.737-.42 1.053-.945 1.053-1.47 0 .525-.421.945-1.053 1.365Z" fill="#000"></path><path opacity=".25" d="m2.784.562 20.533 11.655c.632.42 1.053.84 1.053 1.365 0-.525-.316-1.05-1.053-1.47L2.784.457C1.31-.383.152.352.152 2.032v.105C.152.457 1.31-.278 2.784.562Z" fill="#fff"></path><defs><lineargradient id="a" x1="12.576" y1="1.727" x2="-5.045" y2="19.398" gradientunits="userSpaceOnUse"><stop stop-color="#00A0FF"></stop><stop offset=".007" stop-color="#00A1FF"></stop><stop offset=".26" stop-color="#00BEFF"></stop><stop offset=".512" stop-color="#00D2FF"></stop><stop offset=".76" stop-color="#00DFFF"></stop><stop offset="1" stop-color="#00E3FF"></stop></lineargradient><lineargradient id="b" x1="25.249" y1="13.583" x2="-.23" y2="13.583" gradientunits="userSpaceOnUse"><stop stop-color="#FFE000"></stop><stop offset=".409" stop-color="#FFBD00"></stop><stop offset=".775" stop-color="orange"></stop><stop offset="1" stop-color="#FF9C00"></stop></lineargradient><lineargradient id="c" x1="15.764" y1="15.992" x2="-8.132" y2="39.956" gradientunits="userSpaceOnUse"><stop stop-color="#FF3A44"></stop><stop offset="1" stop-color="#C31162"></stop></lineargradient><lineargradient id="d" x1="-2.695" y1="-7.233" x2="7.976" y2="3.468" gradientunits="userSpaceOnUse"><stop stop-color="#32A071"></stop><stop offset=".069" stop-color="#2DA771"></stop><stop offset=".476" stop-color="#15CF74"></stop><stop offset=".801" stop-color="#06E775"></stop><stop offset="1" stop-color="#00F076"></stop></lineargradient></defs>
  </symbol><symbol  viewBox='0 0 54 57' id='receipt'>
    <path d="M16.506 29.502H8.2c-.435 0-.852.176-1.16.49-.307.312-.48.737-.48 1.18 0 .443.173.867.48 1.18.308.314.725.49 1.16.49h8.307c.435 0 .852-.176 1.16-.49.307-.313.48-.737.48-1.18 0-.443-.173-.868-.48-1.18a1.625 1.625 0 0 0-1.16-.49Z" fill="url(#a)"></path><path d="M16.506 22.377H8.2c-.435 0-.852.176-1.16.49-.307.312-.48.737-.48 1.18 0 .443.173.867.48 1.18.308.314.725.49 1.16.49h8.307c.435 0 .852-.176 1.16-.49.307-.313.48-.737.48-1.18 0-.443-.173-.868-.48-1.18a1.625 1.625 0 0 0-1.16-.49Z" fill="url(#b)"></path><path d="M32.685 15.252H8.2c-.435 0-.852.176-1.16.49-.307.312-.48.737-.48 1.18 0 .443.173.867.48 1.18.308.314.725.49 1.16.49h24.486c.435 0 .852-.176 1.16-.49.307-.313.48-.737.48-1.18 0-.443-.173-.868-.48-1.18a1.625 1.625 0 0 0-1.16-.49Z" fill="url(#c)"></path><path d="M32.685 9.018H8.2c-.435 0-.852.176-1.16.489a1.688 1.688 0 0 0 0 2.361c.308.313.725.49 1.16.49h24.486c.435 0 .852-.177 1.16-.49a1.688 1.688 0 0 0 0-2.361 1.625 1.625 0 0 0-1.16-.49Z" fill="url(#d)"></path><path d="M50.409 26.83h-9.525V7.048a7.122 7.122 0 0 0-2.03-4.983A6.865 6.865 0 0 0 33.96 0H6.92a6.865 6.865 0 0 0-4.89 2.066A7.122 7.122 0 0 0 0 7.048v38.374a11.702 11.702 0 0 0 3.334 8.183A11.28 11.28 0 0 0 11.37 57H45.8a8.133 8.133 0 0 0 5.795-2.448A8.437 8.437 0 0 0 54 48.65V30.49c0-.97-.38-1.9-1.053-2.586a3.564 3.564 0 0 0-2.54-1.074h.002Zm-39.04 26.83a8.026 8.026 0 0 1-5.717-2.416 8.326 8.326 0 0 1-2.373-5.822V7.048c0-.984.384-1.928 1.068-2.624a3.61 3.61 0 0 1 2.576-1.087H33.96a3.61 3.61 0 0 1 2.577 1.087 3.746 3.746 0 0 1 1.067 2.624V48.65a8.414 8.414 0 0 0 1.644 5.01h-27.88Zm39.353-5.01a5.056 5.056 0 0 1-1.44 3.543 4.874 4.874 0 0 1-3.48 1.467 4.875 4.875 0 0 1-3.477-1.467 5.057 5.057 0 0 1-1.441-3.543V30.17h9.525a.307.307 0 0 1 .222.094.32.32 0 0 1 .091.227v18.16Z" fill="url(#e)"></path><path d="M29.967 33.813c-.276-.1-.557-.202-.837-.308v-5.167c.987.39 1.055.89 1.925.89.325 0 .64-.1.91-.284.268-.185.478-.446.6-.751a1.7 1.7 0 0 0-.358-1.819c.032-.035-1.258-1.123-3.077-1.497v-.891c0-.443-.173-.868-.48-1.18a1.625 1.625 0 0 0-1.16-.49c-.434 0-.851.176-1.159.49a1.68 1.68 0 0 0-.48 1.18v1.005c-4.444 1.187-5.374 6.95-2.423 9.307a11.788 11.788 0 0 0 2.423 1.446v6.89c-.712-.105-1.25-.358-2.106-.928a1.615 1.615 0 0 0-1.234-.237 1.64 1.64 0 0 0-1.037.72 1.703 1.703 0 0 0-.233 1.257c.09.433.344.813.708 1.056 1.476.984 2.552 1.362 3.902 1.484v1c0 .443.172.868.48 1.181.308.313.724.49 1.16.49.434 0 .851-.177 1.159-.49.307-.313.48-.738.48-1.18v-1.15c5.734-1.484 6.86-9.856.837-12.023v-.001ZM25.85 31.96a4.678 4.678 0 0 1-.4-.288c-.698-.558-.594-2.227.4-3.044v3.332Zm3.28 10.3v-5.195c2.392 1.058 1.82 4.097 0 5.195Z" fill="url(#f)"></path><defs><lineargradient id="a" x1="12.579" y1="9.932" x2="60.681" y2="39.148" gradientunits="userSpaceOnUse"><stop stop-color="#289328"></stop><stop offset="1" stop-color="#66D05E"></stop></lineargradient><lineargradient id="b" x1="12.579" y1="9.932" x2="60.681" y2="39.148" gradientunits="userSpaceOnUse"><stop stop-color="#289328"></stop><stop offset="1" stop-color="#66D05E"></stop></lineargradient><lineargradient id="c" x1="12.579" y1="9.932" x2="60.681" y2="39.148" gradientunits="userSpaceOnUse"><stop stop-color="#289328"></stop><stop offset="1" stop-color="#66D05E"></stop></lineargradient><lineargradient id="d" x1="12.579" y1="9.932" x2="60.681" y2="39.148" gradientunits="userSpaceOnUse"><stop stop-color="#289328"></stop><stop offset="1" stop-color="#66D05E"></stop></lineargradient><lineargradient id="e" x1="12.579" y1="9.932" x2="60.681" y2="39.148" gradientunits="userSpaceOnUse"><stop stop-color="#289328"></stop><stop offset="1" stop-color="#66D05E"></stop></lineargradient><lineargradient id="f" x1="12.579" y1="9.932" x2="60.681" y2="39.148" gradientunits="userSpaceOnUse"><stop stop-color="#289328"></stop><stop offset="1" stop-color="#66D05E"></stop></lineargradient></defs>
  </symbol><symbol  viewBox='0 0 18 15' id='redarrow'>
    <path d="M14.625 14A3.376 3.376 0 0 0 18 10.625v-6.75A3.376 3.376 0 0 0 14.625.5h-2.953a.428.428 0 0 0-.422.422v1.406c0 .246.176.422.422.422h2.953c.598 0 1.125.527 1.125 1.125v6.75c0 .633-.527 1.125-1.125 1.125h-2.953a.427.427 0 0 0-.422.422v1.406c0 .246.176.422.422.422h2.953Zm-1.652-7.066L7.066 1.027C6.54.5 5.625.887 5.625 1.625V5H.844A.833.833 0 0 0 0 5.844v3.375c0 .492.352.844.844.844h4.781v3.374c0 .774.914 1.126 1.441.598l5.907-5.906c.316-.316.316-.844 0-1.195Z" fill="#E63A28"></path>
  </symbol><symbol  viewBox='0 0 19 20' id='search'>
    <path fill-rule="evenodd" clip-rule="evenodd" d="M8.569 0c4.725 0 8.569 4.047 8.569 9.02a9.323 9.323 0 0 1-1.317 4.8l2.622 2.759a2.081 2.081 0 0 1 0 2.835 1.84 1.84 0 0 1-2.693 0l-2.622-2.761a8.208 8.208 0 0 1-4.559 1.387C3.844 18.04 0 13.993 0 9.02S3.844 0 8.569 0Zm0 16.035c3.675 0 6.664-3.148 6.664-7.015 0-3.869-2.989-7.016-6.664-7.016S1.904 5.151 1.904 9.02c0 3.867 2.99 7.015 6.665 7.015Z" fill="#222"></path>
  </symbol><symbol  viewBox='0 0 16 16' id='siluet'>
    <path d="M8 1c.406 0 .823.083 1.25.25a4.1 4.1 0 0 1 1.14.61c.323.239.59.51.797.812.209.292.313.568.313.828V6c0 .594-.125 1.255-.375 1.984-.25.73-.62 1.282-1.11 1.657a1.105 1.105 0 0 0-.218.265 1.02 1.02 0 0 0-.14.313 1.14 1.14 0 0 0-.016.328c.052.375.244.64.578.797l4.36 2.062.03.016a.14.14 0 0 1 .063.015c.02.01.047.027.078.047a.28.28 0 0 1 .078.079c.031.02.057.052.078.093a.354.354 0 0 1 .063.156c.01.063.015.13.015.204v.968L1 15v-1.016c0-.26.14-.453.422-.578l4.39-2.078a.929.929 0 0 0 .563-.781c.052-.375-.068-.677-.36-.906-.479-.386-.854-.943-1.124-1.672C4.63 7.229 4.5 6.573 4.5 6V3.5c0-.344.172-.708.516-1.094.343-.396.791-.729 1.343-1C6.911 1.136 7.46 1 8 1Zm0-1c-.719 0-1.432.177-2.14.531-.699.344-1.266.792-1.704 1.344C3.72 2.417 3.5 2.958 3.5 3.5V6c0 .677.156 1.458.469 2.344.323.875.797 1.567 1.422 2.078L1 12.5a.846.846 0 0 0-.11.047c-.041.02-.12.068-.234.14a4.058 4.058 0 0 0-.312.22 1.293 1.293 0 0 0-.235.28.524.524 0 0 0-.109.297V15c0 .27.094.5.281.688a.98.98 0 0 0 .719.296h14c.27 0 .5-.099.688-.296a.91.91 0 0 0 .296-.688v-1.516a.542.542 0 0 0-.109-.312.813.813 0 0 0-.25-.281 2.587 2.587 0 0 0-.281-.22 1.61 1.61 0 0 0-.25-.14L15 12.5l-4.36-2.078c.626-.49 1.09-1.167 1.391-2.031.313-.865.469-1.662.469-2.391V3.5c0-.406-.135-.818-.406-1.234a4.376 4.376 0 0 0-1.016-1.141A5.302 5.302 0 0 0 9.625.312 4.583 4.583 0 0 0 8 0Z" fill="#7828E6"></path>
  </symbol><symbol  viewBox='0 0 17 16' id='star'>
    <path d="m8.491 1.203 2.141 4.469 4.89.719-3.53 3.53.109.704.718 4.219-4.328-2.313-4.328 2.313.719-4.219.11-.703L1.46 6.39l4.875-.72.328-.67 1.828-3.797Zm0-.953c-.229 0-.437.057-.625.172a1.08 1.08 0 0 0-.422.469L5.632 4.656l-4.172.61a1.148 1.148 0 0 0-.562.25 1.132 1.132 0 0 0-.36.515c-.146.427-.052.808.281 1.14l3.047 3.048-.703 4.234a1.02 1.02 0 0 0 .063.61c.093.197.229.359.406.484l.094.062a.722.722 0 0 0 .11.047.846.846 0 0 0 .218.078c.042.01.083.016.125.016h.125c.198 0 .38-.047.547-.14l3.64-1.954 3.625 1.953c.094.053.188.089.282.11.093.02.187.031.28.031.25 0 .475-.068.673-.203.177-.125.307-.287.39-.485a.953.953 0 0 0 .079-.609l-.704-4.234 3.047-3.047c.334-.333.427-.714.282-1.14a1.134 1.134 0 0 0-.36-.516 1.148 1.148 0 0 0-.562-.25l-4.172-.61L9.538.891A.612.612 0 0 0 9.46.75a1.174 1.174 0 0 0-.11-.125.544.544 0 0 0-.109-.11.416.416 0 0 0-.14-.093.611.611 0 0 0-.14-.078.558.558 0 0 0-.142-.047.459.459 0 0 0-.171-.031A.795.795 0 0 0 8.49.25Z" fill="#CDB010"></path>
  </symbol><symbol  viewBox='0 0 44 44' id='twitter'>
    <circle cx="22" cy="22" r="22" fill="var(--fill-circle, white)"></circle><path d="M28.344 18.75a6.952 6.952 0 0 0 1.625-1.688 6.151 6.151 0 0 1-1.875.5 3.206 3.206 0 0 0 1.437-1.812 6.932 6.932 0 0 1-2.062.813 3.281 3.281 0 0 0-2.407-1.032 3.28 3.28 0 0 0-3.28 3.281c0 .25.03.5.093.75a9.52 9.52 0 0 1-6.781-3.437 3.191 3.191 0 0 0-.438 1.656 3.23 3.23 0 0 0 1.469 2.719c-.531-.031-1.063-.156-1.5-.406v.031a3.285 3.285 0 0 0 2.625 3.219c-.25.062-.563.125-.844.125-.218 0-.406-.032-.625-.063a3.265 3.265 0 0 0 3.063 2.282 6.597 6.597 0 0 1-4.063 1.406c-.281 0-.531-.032-.781-.063 1.438.938 3.156 1.469 5.031 1.469 6.032 0 9.313-4.969 9.313-9.313v-.437Z" fill="var(--fill-path, #5F8AD4)"></path>
  </symbol><symbol  viewBox='0 0 44 44' id='youtube'>
    <circle cx="22" cy="22" r="22" fill="var(--fill-circle, white)"></circle><path d="M30.156 17.906a2.125 2.125 0 0 0-1.5-1.531C27.313 16 22 16 22 16s-5.344 0-6.688.375a2.126 2.126 0 0 0-1.5 1.531c-.374 1.313-.374 4.125-.374 4.125s0 2.782.374 4.125c.188.75.782 1.313 1.5 1.5C16.657 28 22 28 22 28s5.313 0 6.656-.344a2.084 2.084 0 0 0 1.5-1.5c.375-1.343.375-4.125.375-4.125s0-2.812-.375-4.125Zm-9.906 6.657V19.5l4.438 2.531-4.438 2.532Z" fill="var(--fill-path, #5F8AD4)"></path>
  </symbol></svg>