<svg width="17" height="16" viewBox="0 0 17 16" fill="none" xmlns="http://www.w3.org/2000/svg"><path d="m8.491 1.203 2.141 4.469 4.89.719-3.53 3.53.109.704.718 4.219-4.328-2.313-4.328 2.313.719-4.219.11-.703L1.46 6.39l4.875-.72.328-.67 1.828-3.797Zm0-.953c-.229 0-.437.057-.625.172a1.08 1.08 0 0 0-.422.469L5.632 4.656l-4.172.61a1.148 1.148 0 0 0-.562.25 1.132 1.132 0 0 0-.36.515c-.146.427-.052.808.281 1.14l3.047 3.048-.703 4.234a1.02 1.02 0 0 0 .063.61c.093.197.229.359.406.484l.094.062a.722.722 0 0 0 .11.047.846.846 0 0 0 .218.078c.042.01.083.016.125.016h.125c.198 0 .38-.047.547-.14l3.64-1.954 3.625 1.953c.094.053.188.089.282.11.093.02.187.031.28.031.25 0 .475-.068.673-.203.177-.125.307-.287.39-.485a.953.953 0 0 0 .079-.609l-.704-4.234 3.047-3.047c.334-.333.427-.714.282-1.14a1.134 1.134 0 0 0-.36-.516 1.148 1.148 0 0 0-.562-.25l-4.172-.61L9.538.891A.612.612 0 0 0 9.46.75a1.174 1.174 0 0 0-.11-.125.544.544 0 0 0-.109-.11.416.416 0 0 0-.14-.093.611.611 0 0 0-.14-.078.558.558 0 0 0-.142-.047.459.459 0 0 0-.171-.031A.795.795 0 0 0 8.49.25Z" fill="#CDB010"/></svg>